<mxfile host="65bd71144e">
    <diagram id="dwlBz-xP3TsE14Cx_-Ta" name="Page-1">
        <mxGraphModel dx="2236" dy="1887" grid="1" gridSize="10" guides="1" tooltips="1" connect="1" arrows="1" fold="1" page="1" pageScale="1" pageWidth="850" pageHeight="1100" math="0" shadow="0">
            <root>
                <mxCell id="0"/>
                <mxCell id="1" parent="0"/>
                <mxCell id="2" value="" style="rounded=0;whiteSpace=wrap;html=1;fillColor=#f5f5f5;fontColor=#333333;strokeColor=#666666;" parent="1" vertex="1">
                    <mxGeometry x="30" y="-10" width="810" height="670" as="geometry"/>
                </mxCell>
                <mxCell id="3" value="" style="rounded=0;whiteSpace=wrap;html=1;fillColor=#f5f5f5;strokeColor=#666666;fontColor=#333333;" parent="1" vertex="1">
                    <mxGeometry x="80" y="40" width="710" height="610" as="geometry"/>
                </mxCell>
                <mxCell id="4" value="" style="rounded=0;whiteSpace=wrap;html=1;strokeColor=#666666;fillColor=#f5f5f5;fontColor=#333333;" parent="1" vertex="1">
                    <mxGeometry x="140" y="80" width="120" height="240" as="geometry"/>
                </mxCell>
                <mxCell id="5" value="Staff A" style="rounded=0;whiteSpace=wrap;html=1;strokeColor=#666666;fillColor=#f5f5f5;fontColor=#333333;" parent="1" vertex="1">
                    <mxGeometry x="150" y="150" width="100" height="40" as="geometry"/>
                </mxCell>
                <mxCell id="6" value="Staff B" style="rounded=0;whiteSpace=wrap;html=1;strokeColor=#666666;fillColor=#f5f5f5;fontColor=#333333;" parent="1" vertex="1">
                    <mxGeometry x="150" y="210" width="100" height="40" as="geometry"/>
                </mxCell>
                <mxCell id="7" value="Staff C" style="rounded=0;whiteSpace=wrap;html=1;strokeColor=#666666;fillColor=#f5f5f5;fontColor=#333333;" parent="1" vertex="1">
                    <mxGeometry x="150" y="270" width="100" height="40" as="geometry"/>
                </mxCell>
                <mxCell id="8" value="PM" style="rounded=0;whiteSpace=wrap;html=1;strokeColor=#666666;fillColor=#f5f5f5;fontColor=#333333;" parent="1" vertex="1">
                    <mxGeometry x="150" y="90" width="100" height="40" as="geometry"/>
                </mxCell>
                <mxCell id="9" value="" style="rounded=0;whiteSpace=wrap;html=1;strokeColor=#666666;fillColor=#f5f5f5;fontColor=#333333;" parent="1" vertex="1">
                    <mxGeometry x="580" y="160" width="170" height="180" as="geometry"/>
                </mxCell>
                <mxCell id="11" value="Milestones" style="rounded=0;whiteSpace=wrap;html=1;strokeColor=#666666;fillColor=#f5f5f5;fontColor=#333333;" parent="1" vertex="1">
                    <mxGeometry x="615" y="180" width="100" height="40" as="geometry"/>
                </mxCell>
                <mxCell id="12" value="Text" style="text;html=1;strokeColor=none;fillColor=none;align=center;verticalAlign=middle;whiteSpace=wrap;rounded=0;" parent="1" vertex="1">
                    <mxGeometry x="390" y="380" width="60" height="30" as="geometry"/>
                </mxCell>
                <mxCell id="13" value="Department A" style="text;html=1;strokeColor=none;fillColor=none;align=left;verticalAlign=middle;whiteSpace=wrap;rounded=0;fontColor=#000000;" parent="1" vertex="1">
                    <mxGeometry x="140" y="50" width="100" height="30" as="geometry"/>
                </mxCell>
                <mxCell id="14" value="Releases" style="rounded=0;whiteSpace=wrap;html=1;strokeColor=#666666;fillColor=#f5f5f5;fontColor=#333333;" parent="1" vertex="1">
                    <mxGeometry x="615" y="230" width="100" height="40" as="geometry"/>
                </mxCell>
                <mxCell id="15" value="Issues" style="rounded=0;whiteSpace=wrap;html=1;strokeColor=#666666;fillColor=#f5f5f5;fontColor=#333333;" parent="1" vertex="1">
                    <mxGeometry x="615" y="280" width="100" height="40" as="geometry"/>
                </mxCell>
                <mxCell id="16" value="Project A" style="text;html=1;strokeColor=none;fillColor=none;align=left;verticalAlign=middle;whiteSpace=wrap;rounded=0;fontColor=#000000;" parent="1" vertex="1">
                    <mxGeometry x="580" y="130" width="100" height="30" as="geometry"/>
                </mxCell>
                <mxCell id="17" value="Project B" style="text;html=1;strokeColor=none;fillColor=none;align=left;verticalAlign=middle;whiteSpace=wrap;rounded=0;fontColor=#000000;" parent="1" vertex="1">
                    <mxGeometry x="580" y="370" width="100" height="30" as="geometry"/>
                </mxCell>
                <mxCell id="18" value="" style="rounded=0;whiteSpace=wrap;html=1;strokeColor=#666666;fillColor=#f5f5f5;fontColor=#333333;" parent="1" vertex="1">
                    <mxGeometry x="580" y="400" width="170" height="180" as="geometry"/>
                </mxCell>
                <mxCell id="19" value="Milestones" style="rounded=0;whiteSpace=wrap;html=1;strokeColor=#666666;fillColor=#f5f5f5;fontColor=#333333;" parent="1" vertex="1">
                    <mxGeometry x="615" y="420" width="100" height="40" as="geometry"/>
                </mxCell>
                <mxCell id="20" value="Releases" style="rounded=0;whiteSpace=wrap;html=1;strokeColor=#666666;fillColor=#f5f5f5;fontColor=#333333;" parent="1" vertex="1">
                    <mxGeometry x="615" y="470" width="100" height="40" as="geometry"/>
                </mxCell>
                <mxCell id="21" value="Issues" style="rounded=0;whiteSpace=wrap;html=1;strokeColor=#666666;fillColor=#f5f5f5;fontColor=#333333;" parent="1" vertex="1">
                    <mxGeometry x="615" y="520" width="100" height="40" as="geometry"/>
                </mxCell>
                <mxCell id="22" value="Department B" style="text;html=1;strokeColor=none;fillColor=none;align=left;verticalAlign=middle;whiteSpace=wrap;rounded=0;fontColor=#000000;" parent="1" vertex="1">
                    <mxGeometry x="140" y="360" width="100" height="30" as="geometry"/>
                </mxCell>
                <mxCell id="23" value="" style="rounded=0;whiteSpace=wrap;html=1;strokeColor=#666666;fillColor=#f5f5f5;fontColor=#333333;" parent="1" vertex="1">
                    <mxGeometry x="140" y="390" width="120" height="240" as="geometry"/>
                </mxCell>
                <mxCell id="24" value="PM" style="rounded=0;whiteSpace=wrap;html=1;strokeColor=#666666;fillColor=#f5f5f5;fontColor=#333333;" parent="1" vertex="1">
                    <mxGeometry x="150" y="400" width="100" height="40" as="geometry"/>
                </mxCell>
                <mxCell id="25" value="Staff A" style="rounded=0;whiteSpace=wrap;html=1;strokeColor=#666666;fillColor=#f5f5f5;fontColor=#333333;" parent="1" vertex="1">
                    <mxGeometry x="150" y="460" width="100" height="40" as="geometry"/>
                </mxCell>
                <mxCell id="26" value="Staff B" style="rounded=0;whiteSpace=wrap;html=1;strokeColor=#666666;fillColor=#f5f5f5;fontColor=#333333;" parent="1" vertex="1">
                    <mxGeometry x="150" y="520" width="100" height="40" as="geometry"/>
                </mxCell>
                <mxCell id="27" value="Staff C" style="rounded=0;whiteSpace=wrap;html=1;strokeColor=#666666;fillColor=#f5f5f5;fontColor=#333333;" parent="1" vertex="1">
                    <mxGeometry x="150" y="580" width="100" height="40" as="geometry"/>
                </mxCell>
                <mxCell id="28" value="" style="endArrow=none;html=1;fontColor=#000000;strokeColor=#000000;exitX=1;exitY=0.5;exitDx=0;exitDy=0;" parent="1" source="8" edge="1">
                    <mxGeometry width="50" height="50" relative="1" as="geometry">
                        <mxPoint x="400" y="420" as="sourcePoint"/>
                        <mxPoint x="670" y="110" as="targetPoint"/>
                    </mxGeometry>
                </mxCell>
                <mxCell id="29" value="" style="endArrow=classic;html=1;strokeColor=#000000;fontColor=#000000;" parent="1" edge="1">
                    <mxGeometry width="50" height="50" relative="1" as="geometry">
                        <mxPoint x="670" y="110" as="sourcePoint"/>
                        <mxPoint x="670" y="160" as="targetPoint"/>
                    </mxGeometry>
                </mxCell>
                <mxCell id="31" value="Accessible" style="rounded=0;whiteSpace=wrap;html=1;strokeColor=#666666;fillColor=#f5f5f5;fontColor=#333333;" parent="1" vertex="1">
                    <mxGeometry x="335" y="215" width="170" height="30" as="geometry"/>
                </mxCell>
                <mxCell id="32" value="Group User A" style="text;html=1;strokeColor=none;fillColor=none;align=left;verticalAlign=middle;whiteSpace=wrap;rounded=0;fontColor=#000000;" parent="1" vertex="1">
                    <mxGeometry x="340" y="185" width="100" height="30" as="geometry"/>
                </mxCell>
                <mxCell id="34" value="" style="endArrow=classic;html=1;strokeColor=#000000;fontColor=#000000;entryX=0;entryY=0.5;entryDx=0;entryDy=0;exitX=1;exitY=0.5;exitDx=0;exitDy=0;" parent="1" source="31" target="15" edge="1">
                    <mxGeometry width="50" height="50" relative="1" as="geometry">
                        <mxPoint x="430" y="300" as="sourcePoint"/>
                        <mxPoint x="450" y="370" as="targetPoint"/>
                    </mxGeometry>
                </mxCell>
                <mxCell id="41" value="" style="endArrow=classic;html=1;strokeColor=#000000;fontColor=#000000;entryX=0;entryY=0.5;entryDx=0;entryDy=0;" parent="1" target="31" edge="1">
                    <mxGeometry width="50" height="50" relative="1" as="geometry">
                        <mxPoint x="310" y="230" as="sourcePoint"/>
                        <mxPoint x="450" y="370" as="targetPoint"/>
                    </mxGeometry>
                </mxCell>
                <mxCell id="42" value="" style="endArrow=classic;html=1;strokeColor=#000000;fontColor=#000000;exitX=1;exitY=0.5;exitDx=0;exitDy=0;entryX=0.006;entryY=0.106;entryDx=0;entryDy=0;entryPerimeter=0;" parent="1" source="24" target="18" edge="1">
                    <mxGeometry width="50" height="50" relative="1" as="geometry">
                        <mxPoint x="400" y="420" as="sourcePoint"/>
                        <mxPoint x="450" y="370" as="targetPoint"/>
                    </mxGeometry>
                </mxCell>
                <mxCell id="43" value="Accessible" style="rounded=0;whiteSpace=wrap;html=1;strokeColor=#666666;fillColor=#f5f5f5;fontColor=#333333;" parent="1" vertex="1">
                    <mxGeometry x="340" y="525" width="170" height="30" as="geometry"/>
                </mxCell>
                <mxCell id="44" value="Group User A" style="text;html=1;strokeColor=none;fillColor=none;align=left;verticalAlign=middle;whiteSpace=wrap;rounded=0;fontColor=#000000;" parent="1" vertex="1">
                    <mxGeometry x="340" y="495" width="100" height="30" as="geometry"/>
                </mxCell>
                <mxCell id="45" value="" style="endArrow=none;html=1;strokeColor=#000000;fontColor=#000000;exitX=1;exitY=0.5;exitDx=0;exitDy=0;" parent="1" edge="1">
                    <mxGeometry width="50" height="50" relative="1" as="geometry">
                        <mxPoint x="250" y="539.5" as="sourcePoint"/>
                        <mxPoint x="310" y="539.5" as="targetPoint"/>
                    </mxGeometry>
                </mxCell>
                <mxCell id="47" value="" style="endArrow=none;html=1;strokeColor=#000000;fontColor=#000000;exitX=1;exitY=0.5;exitDx=0;exitDy=0;" parent="1" edge="1">
                    <mxGeometry width="50" height="50" relative="1" as="geometry">
                        <mxPoint x="250" y="480" as="sourcePoint"/>
                        <mxPoint x="310" y="480" as="targetPoint"/>
                    </mxGeometry>
                </mxCell>
                <mxCell id="48" value="" style="endArrow=none;html=1;strokeColor=#000000;fontColor=#000000;entryX=0.042;entryY=0.164;entryDx=0;entryDy=0;entryPerimeter=0;exitX=0.042;exitY=0.382;exitDx=0;exitDy=0;exitPerimeter=0;" parent="1" edge="1">
                    <mxGeometry width="50" height="50" relative="1" as="geometry">
                        <mxPoint x="310.1600000000001" y="600.0999999999999" as="sourcePoint"/>
                        <mxPoint x="310.1600000000001" y="480.20000000000005" as="targetPoint"/>
                    </mxGeometry>
                </mxCell>
                <mxCell id="49" value="" style="endArrow=none;html=1;strokeColor=#000000;fontColor=#000000;exitX=1;exitY=0.5;exitDx=0;exitDy=0;" parent="1" edge="1">
                    <mxGeometry width="50" height="50" relative="1" as="geometry">
                        <mxPoint x="250" y="599.5" as="sourcePoint"/>
                        <mxPoint x="310" y="599.5" as="targetPoint"/>
                    </mxGeometry>
                </mxCell>
                <mxCell id="51" value="" style="endArrow=classic;html=1;strokeColor=#000000;fontColor=#000000;entryX=0;entryY=0.5;entryDx=0;entryDy=0;" parent="1" target="43" edge="1">
                    <mxGeometry width="50" height="50" relative="1" as="geometry">
                        <mxPoint x="310" y="540" as="sourcePoint"/>
                        <mxPoint x="350" y="240" as="targetPoint"/>
                    </mxGeometry>
                </mxCell>
                <mxCell id="52" value="" style="endArrow=classic;html=1;strokeColor=#000000;fontColor=#000000;exitX=0.271;exitY=0.4;exitDx=0;exitDy=0;exitPerimeter=0;" parent="1" edge="1">
                    <mxGeometry width="50" height="50" relative="1" as="geometry">
                        <mxPoint x="509.99999999999994" y="539.5" as="sourcePoint"/>
                        <mxPoint x="610" y="540" as="targetPoint"/>
                    </mxGeometry>
                </mxCell>
                <mxCell id="53" value="&lt;b&gt;System Project Management&lt;/b&gt;" style="text;html=1;strokeColor=none;fillColor=none;align=left;verticalAlign=middle;whiteSpace=wrap;rounded=0;fontColor=#000000;" parent="1" vertex="1">
                    <mxGeometry x="79" y="13" width="170" height="30" as="geometry"/>
                </mxCell>
                <mxCell id="55" value="" style="endArrow=classic;html=1;strokeColor=#000000;fontColor=#000000;exitX=1;exitY=0.5;exitDx=0;exitDy=0;" parent="1" edge="1" source="25">
                    <mxGeometry width="50" height="50" relative="1" as="geometry">
                        <mxPoint x="360" y="480" as="sourcePoint"/>
                        <mxPoint x="610" y="310" as="targetPoint"/>
                    </mxGeometry>
                </mxCell>
                <mxCell id="57" value="&lt;b&gt;Role Management&lt;/b&gt;" style="text;html=1;strokeColor=none;fillColor=none;align=left;verticalAlign=middle;whiteSpace=wrap;rounded=0;fontColor=#000000;" parent="1" vertex="1">
                    <mxGeometry x="340" y="140" width="120" height="30" as="geometry"/>
                </mxCell>
                <mxCell id="58" value="" style="rounded=0;whiteSpace=wrap;html=1;strokeColor=#666666;fontColor=#333333;fillColor=none;" parent="1" vertex="1">
                    <mxGeometry x="560" y="130" width="210" height="470" as="geometry"/>
                </mxCell>
                <mxCell id="59" value="&lt;b&gt;Project Management&lt;/b&gt;" style="text;html=1;strokeColor=none;fillColor=none;align=left;verticalAlign=middle;whiteSpace=wrap;rounded=0;fontColor=#000000;" parent="1" vertex="1">
                    <mxGeometry x="550" y="85" width="130" height="30" as="geometry"/>
                </mxCell>
                <mxCell id="60" value="" style="endArrow=classic;html=1;strokeColor=#000000;fontColor=#000000;entryX=0.682;entryY=0.067;entryDx=0;entryDy=0;entryPerimeter=0;" parent="1" edge="1" target="31">
                    <mxGeometry width="50" height="50" relative="1" as="geometry">
                        <mxPoint x="450" y="110" as="sourcePoint"/>
                        <mxPoint x="450" y="150" as="targetPoint"/>
                    </mxGeometry>
                </mxCell>
                <mxCell id="61" value="" style="endArrow=classic;html=1;strokeColor=#000000;fontColor=#000000;exitX=1;exitY=0.5;exitDx=0;exitDy=0;" parent="1" source="24" edge="1">
                    <mxGeometry width="50" height="50" relative="1" as="geometry">
                        <mxPoint x="400" y="400" as="sourcePoint"/>
                        <mxPoint x="320" y="420" as="targetPoint"/>
                    </mxGeometry>
                </mxCell>
                <mxCell id="62" value="" style="rounded=0;whiteSpace=wrap;html=1;fillColor=#FAFAFA;fontColor=#333333;strokeColor=#666666;gradientColor=none;" parent="1" vertex="1">
                    <mxGeometry x="-560" y="670" width="1540" height="2340" as="geometry"/>
                </mxCell>
                <mxCell id="63" value="Actor" style="shape=umlActor;verticalLabelPosition=bottom;verticalAlign=top;html=1;outlineConnect=0;strokeColor=#000000;" parent="1" vertex="1">
                    <mxGeometry x="-420" y="1070" width="20" height="40" as="geometry"/>
                </mxCell>
                <mxCell id="64" value="Quản lý cấp cao" style="text;html=1;align=center;verticalAlign=middle;whiteSpace=wrap;rounded=0;fontColor=#000000;" parent="1" vertex="1">
                    <mxGeometry x="-440" y="1110" width="60" height="30" as="geometry"/>
                </mxCell>
                <mxCell id="65" value="Quản lý phòng ban, trung tâm" style="ellipse;whiteSpace=wrap;html=1;strokeColor=#000000;fontColor=#030303;fillColor=#FAFAFA;" parent="1" vertex="1">
                    <mxGeometry x="-310" y="740" width="180" height="40" as="geometry"/>
                </mxCell>
                <mxCell id="66" value="" style="endArrow=none;html=1;fontColor=#030303;strokeColor=#000000;entryX=0;entryY=0.5;entryDx=0;entryDy=0;exitX=1;exitY=0.25;exitDx=0;exitDy=0;" parent="1" source="64" target="65" edge="1">
                    <mxGeometry width="50" height="50" relative="1" as="geometry">
                        <mxPoint x="-360" y="760" as="sourcePoint"/>
                        <mxPoint x="-270" y="760" as="targetPoint"/>
                    </mxGeometry>
                </mxCell>
                <mxCell id="86" value="" style="endArrow=none;html=1;fontColor=#030303;strokeColor=#000000;entryX=0;entryY=0.5;entryDx=0;entryDy=0;exitX=1;exitY=0;exitDx=0;exitDy=0;" parent="1" source="88" target="276" edge="1">
                    <mxGeometry width="50" height="50" relative="1" as="geometry">
                        <mxPoint x="110.19000000000005" y="1280.3" as="sourcePoint"/>
                        <mxPoint x="190" y="1210" as="targetPoint"/>
                    </mxGeometry>
                </mxCell>
                <mxCell id="87" value="Actor" style="shape=umlActor;verticalLabelPosition=bottom;verticalAlign=top;html=1;outlineConnect=0;strokeColor=#000000;" parent="1" vertex="1">
                    <mxGeometry x="70" y="1250" width="20" height="40" as="geometry"/>
                </mxCell>
                <mxCell id="88" value="Trưởng phòng ban" style="text;html=1;align=center;verticalAlign=middle;whiteSpace=wrap;rounded=0;fontColor=#000000;" parent="1" vertex="1">
                    <mxGeometry x="50" y="1290" width="60" height="30" as="geometry"/>
                </mxCell>
                <mxCell id="96" value="" style="endArrow=none;html=1;fontColor=#030303;strokeColor=#000000;entryX=0;entryY=0.5;entryDx=0;entryDy=0;exitX=1;exitY=0.25;exitDx=0;exitDy=0;" parent="1" source="64" target="245" edge="1">
                    <mxGeometry width="50" height="50" relative="1" as="geometry">
                        <mxPoint x="-369.80999999999995" y="1460.3" as="sourcePoint"/>
                        <mxPoint x="-249.99999999999727" y="1460" as="targetPoint"/>
                    </mxGeometry>
                </mxCell>
                <mxCell id="99" value="Truy cập thông tin dự án" style="ellipse;whiteSpace=wrap;html=1;strokeColor=#000000;fontColor=#030303;fillColor=#FAFAFA;" parent="1" vertex="1">
                    <mxGeometry x="-80" y="1580" width="180" height="40" as="geometry"/>
                </mxCell>
                <mxCell id="101" value="Actor" style="shape=umlActor;verticalLabelPosition=bottom;verticalAlign=top;html=1;outlineConnect=0;strokeColor=#000000;" parent="1" vertex="1">
                    <mxGeometry x="-510" y="840" width="20" height="40" as="geometry"/>
                </mxCell>
                <mxCell id="102" value="User" style="text;html=1;align=center;verticalAlign=middle;whiteSpace=wrap;rounded=0;fontColor=#000000;" parent="1" vertex="1">
                    <mxGeometry x="-530" y="880" width="60" height="30" as="geometry"/>
                </mxCell>
                <mxCell id="103" value="Quản lý issue" style="ellipse;whiteSpace=wrap;html=1;strokeColor=#000000;fontColor=#030303;fillColor=#FAFAFA;" parent="1" vertex="1">
                    <mxGeometry x="-80" y="1670" width="180" height="40" as="geometry"/>
                </mxCell>
                <mxCell id="104" value="" style="endArrow=none;html=1;fontColor=#030303;strokeColor=#000000;entryX=0;entryY=0.5;entryDx=0;entryDy=0;exitX=1;exitY=0;exitDx=0;exitDy=0;" parent="1" source="106" target="103" edge="1">
                    <mxGeometry width="50" height="50" relative="1" as="geometry">
                        <mxPoint x="-369.80999999999995" y="1690.3000000000002" as="sourcePoint"/>
                        <mxPoint x="-30" y="1970" as="targetPoint"/>
                    </mxGeometry>
                </mxCell>
                <mxCell id="105" value="Actor" style="shape=umlActor;verticalLabelPosition=bottom;verticalAlign=top;html=1;outlineConnect=0;strokeColor=#000000;" parent="1" vertex="1">
                    <mxGeometry x="-280" y="1615" width="20" height="40" as="geometry"/>
                </mxCell>
                <mxCell id="106" value="Nhân viên" style="text;html=1;align=center;verticalAlign=middle;whiteSpace=wrap;rounded=0;fontColor=#000000;" parent="1" vertex="1">
                    <mxGeometry x="-300" y="1655" width="60" height="30" as="geometry"/>
                </mxCell>
                <mxCell id="148" value="Quản lý nhân sự" style="ellipse;whiteSpace=wrap;html=1;strokeColor=#000000;fontColor=#030303;fillColor=#FAFAFA;" parent="1" vertex="1">
                    <mxGeometry x="-315" y="910" width="180" height="40" as="geometry"/>
                </mxCell>
                <mxCell id="149" value="" style="endArrow=none;html=1;fontColor=#030303;strokeColor=#000000;entryX=0;entryY=0.5;entryDx=0;entryDy=0;exitX=1;exitY=0.25;exitDx=0;exitDy=0;" parent="1" source="64" target="148" edge="1">
                    <mxGeometry width="50" height="50" relative="1" as="geometry">
                        <mxPoint x="-365" y="930" as="sourcePoint"/>
                        <mxPoint x="-275" y="930" as="targetPoint"/>
                    </mxGeometry>
                </mxCell>
                <mxCell id="150" value="Xem báo cáo" style="ellipse;whiteSpace=wrap;html=1;strokeColor=#000000;fontColor=#030303;fillColor=#FAFAFA;" parent="1" vertex="1">
                    <mxGeometry x="-315" y="1030" width="180" height="40" as="geometry"/>
                </mxCell>
                <mxCell id="151" value="" style="endArrow=none;html=1;fontColor=#030303;strokeColor=#000000;entryX=0;entryY=0.5;entryDx=0;entryDy=0;exitX=1;exitY=0.25;exitDx=0;exitDy=0;" parent="1" source="64" target="150" edge="1">
                    <mxGeometry width="50" height="50" relative="1" as="geometry">
                        <mxPoint x="-380" y="980.0000000000001" as="sourcePoint"/>
                        <mxPoint x="-325.72" y="1050.1" as="targetPoint"/>
                    </mxGeometry>
                </mxCell>
                <mxCell id="248" value="" style="group" parent="1" vertex="1" connectable="0">
                    <mxGeometry x="250" y="770" width="535" height="645" as="geometry"/>
                </mxCell>
                <mxCell id="249" value="Sửa milestones" style="ellipse;whiteSpace=wrap;html=1;strokeColor=#000000;fontColor=#030303;fillColor=#FAFAFA;" parent="248" vertex="1">
                    <mxGeometry x="385" y="235" width="150" height="40" as="geometry"/>
                </mxCell>
                <mxCell id="250" value="Xóa milestones" style="ellipse;whiteSpace=wrap;html=1;strokeColor=#000000;fontColor=#030303;fillColor=#FAFAFA;" parent="248" vertex="1">
                    <mxGeometry x="385" y="285" width="150" height="40" as="geometry"/>
                </mxCell>
                <mxCell id="251" value="Bao gồm" style="text;html=1;align=center;verticalAlign=middle;whiteSpace=wrap;rounded=0;fontColor=#000000;" parent="248" vertex="1">
                    <mxGeometry x="325" y="335" width="60" height="30" as="geometry"/>
                </mxCell>
                <mxCell id="252" value="Tạo releases" style="ellipse;whiteSpace=wrap;html=1;strokeColor=#000000;fontColor=#030303;fillColor=#FAFAFA;" parent="248" vertex="1">
                    <mxGeometry x="385" y="345" width="150" height="40" as="geometry"/>
                </mxCell>
                <mxCell id="253" value="Bao gồm" style="text;html=1;align=center;verticalAlign=middle;whiteSpace=wrap;rounded=0;fontColor=#000000;" parent="248" vertex="1">
                    <mxGeometry x="325" y="385" width="60" height="30" as="geometry"/>
                </mxCell>
                <mxCell id="254" value="Sửa releases" style="ellipse;whiteSpace=wrap;html=1;strokeColor=#000000;fontColor=#030303;fillColor=#FAFAFA;" parent="248" vertex="1">
                    <mxGeometry x="385" y="395" width="150" height="40" as="geometry"/>
                </mxCell>
                <mxCell id="255" value="Bao gồm" style="text;html=1;align=center;verticalAlign=middle;whiteSpace=wrap;rounded=0;fontColor=#000000;" parent="248" vertex="1">
                    <mxGeometry x="325" y="435" width="60" height="30" as="geometry"/>
                </mxCell>
                <mxCell id="256" value="Xóa releases" style="ellipse;whiteSpace=wrap;html=1;strokeColor=#000000;fontColor=#030303;fillColor=#FAFAFA;" parent="248" vertex="1">
                    <mxGeometry x="385" y="445" width="150" height="40" as="geometry"/>
                </mxCell>
                <mxCell id="257" value="Quản lý releases" style="ellipse;whiteSpace=wrap;html=1;strokeColor=#000000;fontColor=#030303;fillColor=#FAFAFA;" parent="248" vertex="1">
                    <mxGeometry x="130" y="395" width="150" height="40" as="geometry"/>
                </mxCell>
                <mxCell id="258" value="" style="endArrow=classic;html=1;exitX=0.5;exitY=0;exitDx=0;exitDy=0;strokeColor=#000000;entryX=0;entryY=0.5;entryDx=0;entryDy=0;dashed=1;" parent="248" source="257" target="252" edge="1">
                    <mxGeometry width="50" height="50" relative="1" as="geometry">
                        <mxPoint x="205" y="390" as="sourcePoint"/>
                        <mxPoint x="375" y="325" as="targetPoint"/>
                        <Array as="points">
                            <mxPoint x="205" y="365"/>
                            <mxPoint x="355" y="365"/>
                        </Array>
                    </mxGeometry>
                </mxCell>
                <mxCell id="259" value="" style="endArrow=classic;html=1;dashed=1;strokeColor=#000000;exitX=1;exitY=0.5;exitDx=0;exitDy=0;entryX=0;entryY=0.5;entryDx=0;entryDy=0;" parent="248" source="257" target="254" edge="1">
                    <mxGeometry width="50" height="50" relative="1" as="geometry">
                        <mxPoint x="295" y="415" as="sourcePoint"/>
                        <mxPoint x="375" y="325" as="targetPoint"/>
                    </mxGeometry>
                </mxCell>
                <mxCell id="260" value="" style="endArrow=classic;html=1;exitX=0.5;exitY=1;exitDx=0;exitDy=0;strokeColor=#000000;dashed=1;entryX=0;entryY=0.5;entryDx=0;entryDy=0;" parent="248" source="257" target="256" edge="1">
                    <mxGeometry width="50" height="50" relative="1" as="geometry">
                        <mxPoint x="205" y="430" as="sourcePoint"/>
                        <mxPoint x="675" y="465" as="targetPoint"/>
                        <Array as="points">
                            <mxPoint x="205" y="465"/>
                            <mxPoint x="365" y="465"/>
                        </Array>
                    </mxGeometry>
                </mxCell>
                <mxCell id="261" value="Bao gồm" style="text;html=1;align=center;verticalAlign=middle;whiteSpace=wrap;rounded=0;fontColor=#000000;" parent="248" vertex="1">
                    <mxGeometry x="325" y="495" width="60" height="30" as="geometry"/>
                </mxCell>
                <mxCell id="262" value="Tạo issues" style="ellipse;whiteSpace=wrap;html=1;strokeColor=#000000;fontColor=#030303;fillColor=#FAFAFA;" parent="248" vertex="1">
                    <mxGeometry x="385" y="505" width="150" height="40" as="geometry"/>
                </mxCell>
                <mxCell id="263" value="Bao gồm" style="text;html=1;align=center;verticalAlign=middle;whiteSpace=wrap;rounded=0;fontColor=#000000;" parent="248" vertex="1">
                    <mxGeometry x="325" y="545" width="60" height="30" as="geometry"/>
                </mxCell>
                <mxCell id="264" value="Sửa issues" style="ellipse;whiteSpace=wrap;html=1;strokeColor=#000000;fontColor=#030303;fillColor=#FAFAFA;" parent="248" vertex="1">
                    <mxGeometry x="385" y="555" width="150" height="40" as="geometry"/>
                </mxCell>
                <mxCell id="265" value="Bao gồm" style="text;html=1;align=center;verticalAlign=middle;whiteSpace=wrap;rounded=0;fontColor=#000000;" parent="248" vertex="1">
                    <mxGeometry x="325" y="595" width="60" height="30" as="geometry"/>
                </mxCell>
                <mxCell id="266" value="Xóa issues" style="ellipse;whiteSpace=wrap;html=1;strokeColor=#000000;fontColor=#030303;fillColor=#FAFAFA;" parent="248" vertex="1">
                    <mxGeometry x="385" y="605" width="150" height="40" as="geometry"/>
                </mxCell>
                <mxCell id="267" value="Quản lý issues" style="ellipse;whiteSpace=wrap;html=1;strokeColor=#000000;fontColor=#030303;fillColor=#FAFAFA;" parent="248" vertex="1">
                    <mxGeometry x="130" y="555" width="150" height="40" as="geometry"/>
                </mxCell>
                <mxCell id="268" value="" style="endArrow=classic;html=1;exitX=0.5;exitY=0;exitDx=0;exitDy=0;strokeColor=#000000;entryX=0;entryY=0.5;entryDx=0;entryDy=0;dashed=1;" parent="248" source="267" target="262" edge="1">
                    <mxGeometry width="50" height="50" relative="1" as="geometry">
                        <mxPoint x="205" y="550" as="sourcePoint"/>
                        <mxPoint x="375" y="485" as="targetPoint"/>
                        <Array as="points">
                            <mxPoint x="205" y="525"/>
                            <mxPoint x="355" y="525"/>
                        </Array>
                    </mxGeometry>
                </mxCell>
                <mxCell id="269" value="" style="endArrow=classic;html=1;dashed=1;strokeColor=#000000;exitX=1;exitY=0.5;exitDx=0;exitDy=0;entryX=0;entryY=0.5;entryDx=0;entryDy=0;" parent="248" source="267" target="264" edge="1">
                    <mxGeometry width="50" height="50" relative="1" as="geometry">
                        <mxPoint x="295" y="575" as="sourcePoint"/>
                        <mxPoint x="375" y="485" as="targetPoint"/>
                    </mxGeometry>
                </mxCell>
                <mxCell id="270" value="" style="endArrow=classic;html=1;exitX=0.5;exitY=1;exitDx=0;exitDy=0;strokeColor=#000000;dashed=1;entryX=0;entryY=0.5;entryDx=0;entryDy=0;" parent="248" source="267" target="266" edge="1">
                    <mxGeometry width="50" height="50" relative="1" as="geometry">
                        <mxPoint x="205" y="590" as="sourcePoint"/>
                        <mxPoint x="675" y="625" as="targetPoint"/>
                        <Array as="points">
                            <mxPoint x="205" y="625"/>
                            <mxPoint x="365" y="625"/>
                        </Array>
                    </mxGeometry>
                </mxCell>
                <mxCell id="271" value="Bao gồm" style="text;html=1;align=center;verticalAlign=middle;whiteSpace=wrap;rounded=0;fontColor=#000000;" parent="248" vertex="1">
                    <mxGeometry x="90" y="375" width="60" height="30" as="geometry"/>
                </mxCell>
                <mxCell id="272" value="Bao gồm" style="text;html=1;align=center;verticalAlign=middle;whiteSpace=wrap;rounded=0;fontColor=#000000;" parent="248" vertex="1">
                    <mxGeometry x="90" y="535" width="60" height="30" as="geometry"/>
                </mxCell>
                <mxCell id="273" value="" style="endArrow=classic;html=1;exitX=0.5;exitY=1;exitDx=0;exitDy=0;strokeColor=#000000;dashed=1;entryX=0;entryY=0.5;entryDx=0;entryDy=0;" parent="248" source="276" edge="1">
                    <mxGeometry width="50" height="50" relative="1" as="geometry">
                        <mxPoint x="100" y="105" as="sourcePoint"/>
                        <mxPoint x="130" y="575" as="targetPoint"/>
                        <Array as="points">
                            <mxPoint x="90" y="575"/>
                        </Array>
                    </mxGeometry>
                </mxCell>
                <mxCell id="274" value="" style="endArrow=classic;html=1;exitX=0.5;exitY=1;exitDx=0;exitDy=0;strokeColor=#000000;dashed=1;entryX=0;entryY=0.5;entryDx=0;entryDy=0;" parent="248" source="276" edge="1">
                    <mxGeometry width="50" height="50" relative="1" as="geometry">
                        <mxPoint x="100" y="105" as="sourcePoint"/>
                        <mxPoint x="130" y="415" as="targetPoint"/>
                        <Array as="points">
                            <mxPoint x="90" y="415"/>
                        </Array>
                    </mxGeometry>
                </mxCell>
                <mxCell id="275" value="Bao gồm" style="text;html=1;align=center;verticalAlign=middle;whiteSpace=wrap;rounded=0;fontColor=#000000;" parent="248" vertex="1">
                    <mxGeometry x="90" y="215" width="60" height="30" as="geometry"/>
                </mxCell>
                <mxCell id="276" value="Quản lý dự án" style="ellipse;whiteSpace=wrap;html=1;strokeColor=#000000;fontColor=#030303;fillColor=#FAFAFA;" parent="248" vertex="1">
                    <mxGeometry y="55" width="180" height="40" as="geometry"/>
                </mxCell>
                <mxCell id="277" value="" style="endArrow=classic;html=1;exitX=0.5;exitY=1;exitDx=0;exitDy=0;strokeColor=#000000;dashed=1;entryX=0;entryY=0.5;entryDx=0;entryDy=0;" parent="248" source="276" target="283" edge="1">
                    <mxGeometry width="50" height="50" relative="1" as="geometry">
                        <mxPoint x="90" y="100" as="sourcePoint"/>
                        <mxPoint x="560" y="130" as="targetPoint"/>
                        <Array as="points">
                            <mxPoint x="90" y="130"/>
                            <mxPoint x="250" y="130"/>
                        </Array>
                    </mxGeometry>
                </mxCell>
                <mxCell id="278" value="" style="endArrow=classic;html=1;exitX=0.5;exitY=0;exitDx=0;exitDy=0;strokeColor=#000000;entryX=0;entryY=0.5;entryDx=0;entryDy=0;dashed=1;" parent="248" source="276" target="285" edge="1">
                    <mxGeometry width="50" height="50" relative="1" as="geometry">
                        <mxPoint x="90" y="60" as="sourcePoint"/>
                        <mxPoint x="260" y="-10" as="targetPoint"/>
                        <Array as="points">
                            <mxPoint x="90" y="30"/>
                            <mxPoint x="240" y="30"/>
                        </Array>
                    </mxGeometry>
                </mxCell>
                <mxCell id="279" value="" style="endArrow=classic;html=1;dashed=1;strokeColor=#000000;exitX=1;exitY=0.5;exitDx=0;exitDy=0;entryX=0;entryY=0.5;entryDx=0;entryDy=0;" parent="248" target="284" edge="1">
                    <mxGeometry width="50" height="50" relative="1" as="geometry">
                        <mxPoint x="180" y="80" as="sourcePoint"/>
                        <mxPoint x="260" y="-10" as="targetPoint"/>
                    </mxGeometry>
                </mxCell>
                <mxCell id="280" value="Bao gồm" style="text;html=1;align=center;verticalAlign=middle;whiteSpace=wrap;rounded=0;fontColor=#000000;" parent="248" vertex="1">
                    <mxGeometry x="210" y="50" width="60" height="30" as="geometry"/>
                </mxCell>
                <mxCell id="281" value="Bao gồm" style="text;html=1;align=center;verticalAlign=middle;whiteSpace=wrap;rounded=0;fontColor=#000000;" parent="248" vertex="1">
                    <mxGeometry x="210" width="60" height="30" as="geometry"/>
                </mxCell>
                <mxCell id="282" value="Bao gồm" style="text;html=1;align=center;verticalAlign=middle;whiteSpace=wrap;rounded=0;fontColor=#000000;" parent="248" vertex="1">
                    <mxGeometry x="210" y="100" width="60" height="30" as="geometry"/>
                </mxCell>
                <mxCell id="283" value="Xóa dự án" style="ellipse;whiteSpace=wrap;html=1;strokeColor=#000000;fontColor=#030303;fillColor=#FAFAFA;" parent="248" vertex="1">
                    <mxGeometry x="270" y="110" width="150" height="40" as="geometry"/>
                </mxCell>
                <mxCell id="284" value="Sửa dự án" style="ellipse;whiteSpace=wrap;html=1;strokeColor=#000000;fontColor=#030303;fillColor=#FAFAFA;" parent="248" vertex="1">
                    <mxGeometry x="270" y="60" width="150" height="40" as="geometry"/>
                </mxCell>
                <mxCell id="285" value="Tạo dự án" style="ellipse;whiteSpace=wrap;html=1;strokeColor=#000000;fontColor=#030303;fillColor=#FAFAFA;" parent="248" vertex="1">
                    <mxGeometry x="270" y="10" width="150" height="40" as="geometry"/>
                </mxCell>
                <mxCell id="286" value="" style="endArrow=classic;html=1;dashed=1;strokeColor=#000000;exitX=1;exitY=0.5;exitDx=0;exitDy=0;entryX=0;entryY=0.5;entryDx=0;entryDy=0;" parent="248" source="287" edge="1">
                    <mxGeometry width="50" height="50" relative="1" as="geometry">
                        <mxPoint x="295" y="255" as="sourcePoint"/>
                        <mxPoint x="385" y="255" as="targetPoint"/>
                    </mxGeometry>
                </mxCell>
                <mxCell id="287" value="Quản lý milestones" style="ellipse;whiteSpace=wrap;html=1;strokeColor=#000000;fontColor=#030303;fillColor=#FAFAFA;" parent="248" vertex="1">
                    <mxGeometry x="130" y="235" width="150" height="40" as="geometry"/>
                </mxCell>
                <mxCell id="288" value="" style="endArrow=classic;html=1;exitX=0.5;exitY=1;exitDx=0;exitDy=0;strokeColor=#000000;dashed=1;entryX=0;entryY=0.5;entryDx=0;entryDy=0;" parent="248" source="276" target="287" edge="1">
                    <mxGeometry width="50" height="50" relative="1" as="geometry">
                        <mxPoint x="100" y="105" as="sourcePoint"/>
                        <mxPoint x="280" y="140" as="targetPoint"/>
                        <Array as="points">
                            <mxPoint x="90" y="255"/>
                        </Array>
                    </mxGeometry>
                </mxCell>
                <mxCell id="289" value="" style="endArrow=classic;html=1;exitX=0.5;exitY=1;exitDx=0;exitDy=0;strokeColor=#000000;dashed=1;entryX=0;entryY=0.5;entryDx=0;entryDy=0;" parent="248" source="287" edge="1">
                    <mxGeometry width="50" height="50" relative="1" as="geometry">
                        <mxPoint x="205" y="270" as="sourcePoint"/>
                        <mxPoint x="385" y="305" as="targetPoint"/>
                        <Array as="points">
                            <mxPoint x="205" y="305"/>
                            <mxPoint x="365" y="305"/>
                        </Array>
                    </mxGeometry>
                </mxCell>
                <mxCell id="290" value="Bao gồm" style="text;html=1;align=center;verticalAlign=middle;whiteSpace=wrap;rounded=0;fontColor=#000000;" parent="248" vertex="1">
                    <mxGeometry x="325" y="275" width="60" height="30" as="geometry"/>
                </mxCell>
                <mxCell id="291" value="Bao gồm" style="text;html=1;align=center;verticalAlign=middle;whiteSpace=wrap;rounded=0;fontColor=#000000;" parent="248" vertex="1">
                    <mxGeometry x="325" y="225" width="60" height="30" as="geometry"/>
                </mxCell>
                <mxCell id="292" value="Bao gồm" style="text;html=1;align=center;verticalAlign=middle;whiteSpace=wrap;rounded=0;fontColor=#000000;" parent="248" vertex="1">
                    <mxGeometry x="325" y="175" width="60" height="30" as="geometry"/>
                </mxCell>
                <mxCell id="293" value="Tạo milestones" style="ellipse;whiteSpace=wrap;html=1;strokeColor=#000000;fontColor=#030303;fillColor=#FAFAFA;" parent="248" vertex="1">
                    <mxGeometry x="385" y="185" width="150" height="40" as="geometry"/>
                </mxCell>
                <mxCell id="294" value="" style="endArrow=classic;html=1;exitX=0.5;exitY=0;exitDx=0;exitDy=0;strokeColor=#000000;entryX=0;entryY=0.5;entryDx=0;entryDy=0;dashed=1;" parent="248" source="287" target="293" edge="1">
                    <mxGeometry width="50" height="50" relative="1" as="geometry">
                        <mxPoint x="205" y="230" as="sourcePoint"/>
                        <mxPoint x="375" y="165" as="targetPoint"/>
                        <Array as="points">
                            <mxPoint x="205" y="205"/>
                            <mxPoint x="355" y="205"/>
                        </Array>
                    </mxGeometry>
                </mxCell>
                <mxCell id="301" value="" style="group" parent="1" vertex="1" connectable="0">
                    <mxGeometry x="-315" y="680" width="425" height="550" as="geometry"/>
                </mxCell>
                <mxCell id="114" value="Tạo group phòng ban" style="ellipse;whiteSpace=wrap;html=1;strokeColor=#000000;fontColor=#030303;fillColor=#FAFAFA;" parent="301" vertex="1">
                    <mxGeometry x="275" y="10" width="150" height="40" as="geometry"/>
                </mxCell>
                <mxCell id="115" value="Sửa group phòng ban" style="ellipse;whiteSpace=wrap;html=1;strokeColor=#000000;fontColor=#030303;fillColor=#FAFAFA;" parent="301" vertex="1">
                    <mxGeometry x="275" y="60" width="150" height="40" as="geometry"/>
                </mxCell>
                <mxCell id="116" value="Xóa group phòng ban" style="ellipse;whiteSpace=wrap;html=1;strokeColor=#000000;fontColor=#030303;fillColor=#FAFAFA;" parent="301" vertex="1">
                    <mxGeometry x="275" y="110" width="150" height="40" as="geometry"/>
                </mxCell>
                <mxCell id="119" value="" style="endArrow=classic;html=1;exitX=0.5;exitY=0;exitDx=0;exitDy=0;strokeColor=#000000;entryX=0;entryY=0.5;entryDx=0;entryDy=0;dashed=1;" parent="301" source="65" target="114" edge="1">
                    <mxGeometry width="50" height="50" relative="1" as="geometry">
                        <mxPoint x="215" y="40" as="sourcePoint"/>
                        <mxPoint x="265" y="-10" as="targetPoint"/>
                        <Array as="points">
                            <mxPoint x="95" y="30"/>
                            <mxPoint x="245" y="30"/>
                        </Array>
                    </mxGeometry>
                </mxCell>
                <mxCell id="120" value="" style="endArrow=classic;html=1;exitX=0.5;exitY=1;exitDx=0;exitDy=0;strokeColor=#000000;dashed=1;entryX=0;entryY=0.5;entryDx=0;entryDy=0;" parent="301" source="65" target="116" edge="1">
                    <mxGeometry width="50" height="50" relative="1" as="geometry">
                        <mxPoint x="195" y="130" as="sourcePoint"/>
                        <mxPoint x="565" y="130" as="targetPoint"/>
                        <Array as="points">
                            <mxPoint x="95" y="130"/>
                            <mxPoint x="255" y="130"/>
                        </Array>
                    </mxGeometry>
                </mxCell>
                <mxCell id="121" value="" style="endArrow=classic;html=1;dashed=1;strokeColor=#000000;exitX=1;exitY=0.5;exitDx=0;exitDy=0;entryX=0;entryY=0.5;entryDx=0;entryDy=0;" parent="301" source="65" target="115" edge="1">
                    <mxGeometry width="50" height="50" relative="1" as="geometry">
                        <mxPoint x="215" y="40" as="sourcePoint"/>
                        <mxPoint x="265" y="-10" as="targetPoint"/>
                    </mxGeometry>
                </mxCell>
                <mxCell id="125" value="Bao gồm" style="text;html=1;align=center;verticalAlign=middle;whiteSpace=wrap;rounded=0;fontColor=#000000;" parent="301" vertex="1">
                    <mxGeometry x="215" width="60" height="30" as="geometry"/>
                </mxCell>
                <mxCell id="127" value="Bao gồm" style="text;html=1;align=center;verticalAlign=middle;whiteSpace=wrap;rounded=0;fontColor=#000000;" parent="301" vertex="1">
                    <mxGeometry x="215" y="50" width="60" height="30" as="geometry"/>
                </mxCell>
                <mxCell id="128" value="Bao gồm" style="text;html=1;align=center;verticalAlign=middle;whiteSpace=wrap;rounded=0;fontColor=#000000;" parent="301" vertex="1">
                    <mxGeometry x="215" y="100" width="60" height="30" as="geometry"/>
                </mxCell>
                <mxCell id="142" value="Bao gồm" style="text;html=1;align=center;verticalAlign=middle;whiteSpace=wrap;rounded=0;fontColor=#000000;" parent="301" vertex="1">
                    <mxGeometry x="210" y="170" width="60" height="30" as="geometry"/>
                </mxCell>
                <mxCell id="143" value="Phân bổ nhân viên vào phòng ban" style="ellipse;whiteSpace=wrap;html=1;strokeColor=#000000;fontColor=#030303;fillColor=#FAFAFA;" parent="301" vertex="1">
                    <mxGeometry x="270" y="180" width="150" height="40" as="geometry"/>
                </mxCell>
                <mxCell id="145" value="Gán vai trò" style="ellipse;whiteSpace=wrap;html=1;strokeColor=#000000;fontColor=#030303;fillColor=#FAFAFA;" parent="301" vertex="1">
                    <mxGeometry x="270" y="280" width="150" height="40" as="geometry"/>
                </mxCell>
                <mxCell id="146" value="" style="endArrow=classic;html=1;exitX=0.5;exitY=1;exitDx=0;exitDy=0;strokeColor=#000000;dashed=1;entryX=0;entryY=0.5;entryDx=0;entryDy=0;" parent="301" source="148" target="145" edge="1">
                    <mxGeometry width="50" height="50" relative="1" as="geometry">
                        <mxPoint x="190" y="300" as="sourcePoint"/>
                        <mxPoint x="560" y="300" as="targetPoint"/>
                        <Array as="points">
                            <mxPoint x="90" y="300"/>
                            <mxPoint x="250" y="300"/>
                        </Array>
                    </mxGeometry>
                </mxCell>
                <mxCell id="147" value="Bao gồm" style="text;html=1;align=center;verticalAlign=middle;whiteSpace=wrap;rounded=0;fontColor=#000000;" parent="301" vertex="1">
                    <mxGeometry x="210" y="270" width="60" height="30" as="geometry"/>
                </mxCell>
                <mxCell id="245" value="Quản lý dự án" style="ellipse;whiteSpace=wrap;html=1;strokeColor=#000000;fontColor=#030303;fillColor=#FAFAFA;" parent="301" vertex="1">
                    <mxGeometry y="435" width="180" height="40" as="geometry"/>
                </mxCell>
                <mxCell id="246" value="Quản lý thành viên dự án" style="ellipse;whiteSpace=wrap;html=1;strokeColor=#000000;fontColor=#030303;fillColor=#FAFAFA;" parent="301" vertex="1">
                    <mxGeometry y="510" width="180" height="40" as="geometry"/>
                </mxCell>
                <mxCell id="141" value="" style="endArrow=classic;html=1;exitX=0.5;exitY=0;exitDx=0;exitDy=0;strokeColor=#000000;entryX=0;entryY=0.5;entryDx=0;entryDy=0;dashed=1;" parent="1" source="148" target="143" edge="1">
                    <mxGeometry width="50" height="50" relative="1" as="geometry">
                        <mxPoint x="210" y="210" as="sourcePoint"/>
                        <mxPoint x="260" y="160" as="targetPoint"/>
                        <Array as="points">
                            <mxPoint x="-225" y="880"/>
                            <mxPoint x="-100" y="880"/>
                        </Array>
                    </mxGeometry>
                </mxCell>
                <mxCell id="313" value="" style="endArrow=classic;html=1;exitX=0;exitY=0.5;exitDx=0;exitDy=0;strokeColor=#000000;entryX=0;entryY=1;entryDx=0;entryDy=0;dashed=1;" parent="1" source="303" target="276" edge="1">
                    <mxGeometry width="50" height="50" relative="1" as="geometry">
                        <mxPoint x="150" y="1450" as="sourcePoint"/>
                        <mxPoint x="329.9999999999932" y="1420" as="targetPoint"/>
                        <Array as="points">
                            <mxPoint x="270" y="1510"/>
                            <mxPoint x="270" y="1430"/>
                        </Array>
                    </mxGeometry>
                </mxCell>
                <mxCell id="314" value="Phụ thuộc" style="text;html=1;align=center;verticalAlign=middle;whiteSpace=wrap;rounded=0;fontColor=#000000;" parent="1" vertex="1">
                    <mxGeometry x="280" y="1445" width="60" height="30" as="geometry"/>
                </mxCell>
                <mxCell id="315" value="" style="group" parent="1" vertex="1" connectable="0">
                    <mxGeometry x="322.5" y="1430" width="415" height="150" as="geometry"/>
                </mxCell>
                <mxCell id="303" value="Quản lý thành viên dự án" style="ellipse;whiteSpace=wrap;html=1;strokeColor=#000000;fontColor=#030303;fillColor=#FAFAFA;" parent="315" vertex="1">
                    <mxGeometry y="60" width="170" height="40" as="geometry"/>
                </mxCell>
                <mxCell id="304" value="" style="endArrow=classic;html=1;exitX=0.5;exitY=1;exitDx=0;exitDy=0;strokeColor=#000000;dashed=1;entryX=0;entryY=0.5;entryDx=0;entryDy=0;" parent="315" source="303" target="310" edge="1">
                    <mxGeometry width="50" height="50" relative="1" as="geometry">
                        <mxPoint x="85" y="100" as="sourcePoint"/>
                        <mxPoint x="305" y="-610" as="targetPoint"/>
                        <Array as="points">
                            <mxPoint x="85" y="130"/>
                            <mxPoint x="245" y="130"/>
                        </Array>
                    </mxGeometry>
                </mxCell>
                <mxCell id="305" value="" style="endArrow=classic;html=1;dashed=1;strokeColor=#000000;exitX=1;exitY=0.5;exitDx=0;exitDy=0;entryX=0;entryY=0.5;entryDx=0;entryDy=0;" parent="315" source="303" target="311" edge="1">
                    <mxGeometry width="50" height="50" relative="1" as="geometry">
                        <mxPoint x="160" y="80" as="sourcePoint"/>
                        <mxPoint x="5" y="-750" as="targetPoint"/>
                    </mxGeometry>
                </mxCell>
                <mxCell id="306" value="" style="endArrow=classic;html=1;exitX=0.5;exitY=0;exitDx=0;exitDy=0;strokeColor=#000000;entryX=0;entryY=0.5;entryDx=0;entryDy=0;dashed=1;" parent="315" source="303" target="312" edge="1">
                    <mxGeometry width="50" height="50" relative="1" as="geometry">
                        <mxPoint x="85" y="60" as="sourcePoint"/>
                        <mxPoint x="5" y="-750" as="targetPoint"/>
                        <Array as="points">
                            <mxPoint x="85" y="30"/>
                            <mxPoint x="235" y="30"/>
                        </Array>
                    </mxGeometry>
                </mxCell>
                <mxCell id="307" value="Bao gồm" style="text;html=1;align=center;verticalAlign=middle;whiteSpace=wrap;rounded=0;fontColor=#000000;" parent="315" vertex="1">
                    <mxGeometry x="205" y="50" width="60" height="30" as="geometry"/>
                </mxCell>
                <mxCell id="308" value="Bao gồm" style="text;html=1;align=center;verticalAlign=middle;whiteSpace=wrap;rounded=0;fontColor=#000000;" parent="315" vertex="1">
                    <mxGeometry x="205" width="60" height="30" as="geometry"/>
                </mxCell>
                <mxCell id="309" value="Bao gồm" style="text;html=1;align=center;verticalAlign=middle;whiteSpace=wrap;rounded=0;fontColor=#000000;" parent="315" vertex="1">
                    <mxGeometry x="205" y="100" width="60" height="30" as="geometry"/>
                </mxCell>
                <mxCell id="310" value="Xóa thành viên/group" style="ellipse;whiteSpace=wrap;html=1;strokeColor=#000000;fontColor=#030303;fillColor=#FAFAFA;" parent="315" vertex="1">
                    <mxGeometry x="265" y="110" width="150" height="40" as="geometry"/>
                </mxCell>
                <mxCell id="311" value="Thêm group thành viên" style="ellipse;whiteSpace=wrap;html=1;strokeColor=#000000;fontColor=#030303;fillColor=#FAFAFA;" parent="315" vertex="1">
                    <mxGeometry x="265" y="60" width="150" height="40" as="geometry"/>
                </mxCell>
                <mxCell id="312" value="Thêm thành viên" style="ellipse;whiteSpace=wrap;html=1;strokeColor=#000000;fontColor=#030303;fillColor=#FAFAFA;" parent="315" vertex="1">
                    <mxGeometry x="265" y="10" width="150" height="40" as="geometry"/>
                </mxCell>
                <mxCell id="316" value="" style="endArrow=classic;html=1;dashed=1;strokeColor=#000000;fontColor=#000000;exitX=0;exitY=0.5;exitDx=0;exitDy=0;entryX=0;entryY=1;entryDx=0;entryDy=0;" parent="1" source="276" target="65" edge="1">
                    <mxGeometry width="50" height="50" relative="1" as="geometry">
                        <mxPoint x="290" y="850" as="sourcePoint"/>
                        <mxPoint x="340" y="800" as="targetPoint"/>
                        <Array as="points">
                            <mxPoint x="-283" y="840"/>
                        </Array>
                    </mxGeometry>
                </mxCell>
                <mxCell id="317" value="Phụ thuộc" style="text;html=1;align=center;verticalAlign=middle;whiteSpace=wrap;rounded=0;fontColor=#000000;" parent="1" vertex="1">
                    <mxGeometry x="190" y="810" width="60" height="30" as="geometry"/>
                </mxCell>
                <mxCell id="318" value="" style="endArrow=none;html=1;fontColor=#030303;strokeColor=#000000;entryX=0;entryY=0.5;entryDx=0;entryDy=0;exitX=1;exitY=0;exitDx=0;exitDy=0;" parent="1" source="88" target="303" edge="1">
                    <mxGeometry width="50" height="50" relative="1" as="geometry">
                        <mxPoint x="120.19000000000005" y="1290.3000000000002" as="sourcePoint"/>
                        <mxPoint x="260" y="855" as="targetPoint"/>
                    </mxGeometry>
                </mxCell>
                <mxCell id="319" value="" style="endArrow=block;html=1;strokeColor=#000000;fontColor=#000000;exitX=1;exitY=0.5;exitDx=0;exitDy=0;endFill=0;fillColor=#f5f5f5;shadow=0;rounded=1;" parent="1" source="245" edge="1">
                    <mxGeometry width="50" height="50" relative="1" as="geometry">
                        <mxPoint x="-120" y="950" as="sourcePoint"/>
                        <mxPoint x="310" y="870" as="targetPoint"/>
                        <Array as="points">
                            <mxPoint x="310" y="1140"/>
                        </Array>
                    </mxGeometry>
                </mxCell>
                <mxCell id="320" value="" style="endArrow=block;html=1;strokeColor=#000000;fontColor=#000000;exitX=0.5;exitY=1;exitDx=0;exitDy=0;endFill=0;fillColor=#f5f5f5;shadow=0;rounded=1;" parent="1" source="246" edge="1">
                    <mxGeometry width="50" height="50" relative="1" as="geometry">
                        <mxPoint x="-124.99999999999727" y="1145" as="sourcePoint"/>
                        <mxPoint x="320" y="1510" as="targetPoint"/>
                        <Array as="points">
                            <mxPoint x="-225" y="1510"/>
                        </Array>
                    </mxGeometry>
                </mxCell>
                <mxCell id="321" value="" style="endArrow=none;html=1;fontColor=#030303;strokeColor=#000000;entryX=0;entryY=0.5;entryDx=0;entryDy=0;exitX=1;exitY=0.25;exitDx=0;exitDy=0;" parent="1" source="64" target="246" edge="1">
                    <mxGeometry width="50" height="50" relative="1" as="geometry">
                        <mxPoint x="-370" y="1127.5" as="sourcePoint"/>
                        <mxPoint x="-305.00000000000273" y="1145" as="targetPoint"/>
                    </mxGeometry>
                </mxCell>
                <mxCell id="322" value="" style="endArrow=none;html=1;fontColor=#030303;strokeColor=#000000;entryX=0;entryY=0.5;entryDx=0;entryDy=0;exitX=1;exitY=0;exitDx=0;exitDy=0;" parent="1" source="106" target="99" edge="1">
                    <mxGeometry width="50" height="50" relative="1" as="geometry">
                        <mxPoint x="-230" y="1665" as="sourcePoint"/>
                        <mxPoint x="-70.00000000000273" y="1700" as="targetPoint"/>
                    </mxGeometry>
                </mxCell>
                <mxCell id="323" value="" style="endArrow=classic;html=1;exitX=0.5;exitY=1;exitDx=0;exitDy=0;strokeColor=#000000;dashed=1;entryX=0;entryY=0.5;entryDx=0;entryDy=0;" parent="1" source="103" target="329" edge="1">
                    <mxGeometry width="50" height="50" relative="1" as="geometry">
                        <mxPoint x="10" y="1710" as="sourcePoint"/>
                        <mxPoint x="-92.5" y="-430" as="targetPoint"/>
                        <Array as="points">
                            <mxPoint x="10" y="1740"/>
                            <mxPoint x="170" y="1740"/>
                        </Array>
                    </mxGeometry>
                </mxCell>
                <mxCell id="324" value="" style="endArrow=classic;html=1;dashed=1;strokeColor=#000000;exitX=1;exitY=0.5;exitDx=0;exitDy=0;entryX=0;entryY=0.5;entryDx=0;entryDy=0;" parent="1" source="103" target="330" edge="1">
                    <mxGeometry width="50" height="50" relative="1" as="geometry">
                        <mxPoint x="95" y="1690" as="sourcePoint"/>
                        <mxPoint x="-392.5" y="-570" as="targetPoint"/>
                    </mxGeometry>
                </mxCell>
                <mxCell id="325" value="" style="endArrow=classic;html=1;exitX=0.5;exitY=0;exitDx=0;exitDy=0;strokeColor=#000000;entryX=0;entryY=0.5;entryDx=0;entryDy=0;dashed=1;" parent="1" source="103" target="331" edge="1">
                    <mxGeometry width="50" height="50" relative="1" as="geometry">
                        <mxPoint x="10" y="1670" as="sourcePoint"/>
                        <mxPoint x="-392.5" y="-570" as="targetPoint"/>
                        <Array as="points">
                            <mxPoint x="10" y="1640"/>
                            <mxPoint x="160" y="1640"/>
                        </Array>
                    </mxGeometry>
                </mxCell>
                <mxCell id="326" value="Bao gồm" style="text;html=1;align=center;verticalAlign=middle;whiteSpace=wrap;rounded=0;fontColor=#000000;" parent="1" vertex="1">
                    <mxGeometry x="130" y="1660" width="60" height="30" as="geometry"/>
                </mxCell>
                <mxCell id="327" value="Bao gồm" style="text;html=1;align=center;verticalAlign=middle;whiteSpace=wrap;rounded=0;fontColor=#000000;" parent="1" vertex="1">
                    <mxGeometry x="130" y="1610" width="60" height="30" as="geometry"/>
                </mxCell>
                <mxCell id="328" value="Bao gồm" style="text;html=1;align=center;verticalAlign=middle;whiteSpace=wrap;rounded=0;fontColor=#000000;" parent="1" vertex="1">
                    <mxGeometry x="130" y="1710" width="60" height="30" as="geometry"/>
                </mxCell>
                <mxCell id="329" value="Gán issue cho thành viên" style="ellipse;whiteSpace=wrap;html=1;strokeColor=#000000;fontColor=#030303;fillColor=#FAFAFA;" parent="1" vertex="1">
                    <mxGeometry x="190" y="1720" width="150" height="40" as="geometry"/>
                </mxCell>
                <mxCell id="330" value="Cập nhật trạng thái issue" style="ellipse;whiteSpace=wrap;html=1;strokeColor=#000000;fontColor=#030303;fillColor=#FAFAFA;" parent="1" vertex="1">
                    <mxGeometry x="190" y="1670" width="150" height="40" as="geometry"/>
                </mxCell>
                <mxCell id="331" value="Thêm issue" style="ellipse;whiteSpace=wrap;html=1;strokeColor=#000000;fontColor=#030303;fillColor=#FAFAFA;" parent="1" vertex="1">
                    <mxGeometry x="190" y="1620" width="150" height="40" as="geometry"/>
                </mxCell>
                <mxCell id="333" value="" style="endArrow=block;html=1;strokeColor=#000000;fontColor=#000000;exitX=0;exitY=0.25;exitDx=0;exitDy=0;endFill=0;fillColor=#f5f5f5;shadow=0;rounded=1;entryX=0.5;entryY=1;entryDx=0;entryDy=0;" parent="1" source="88" target="102" edge="1">
                    <mxGeometry width="50" height="50" relative="1" as="geometry">
                        <mxPoint x="-124.99999999999727" y="1145" as="sourcePoint"/>
                        <mxPoint x="320" y="880" as="targetPoint"/>
                        <Array as="points">
                            <mxPoint x="-500" y="1298"/>
                        </Array>
                    </mxGeometry>
                </mxCell>
                <mxCell id="334" value="" style="endArrow=block;html=1;strokeColor=#000000;fontColor=#000000;exitX=0;exitY=0;exitDx=0;exitDy=0;endFill=0;fillColor=#f5f5f5;shadow=0;rounded=1;entryX=0.5;entryY=1;entryDx=0;entryDy=0;" parent="1" source="64" edge="1">
                    <mxGeometry width="50" height="50" relative="1" as="geometry">
                        <mxPoint x="50" y="1297.5" as="sourcePoint"/>
                        <mxPoint x="-500.0000000000002" y="910" as="targetPoint"/>
                        <Array as="points">
                            <mxPoint x="-500" y="1110"/>
                        </Array>
                    </mxGeometry>
                </mxCell>
                <mxCell id="335" value="" style="endArrow=block;html=1;strokeColor=#000000;fontColor=#000000;exitX=0;exitY=0;exitDx=0;exitDy=0;endFill=0;fillColor=#f5f5f5;shadow=0;rounded=1;entryX=0.5;entryY=1;entryDx=0;entryDy=0;" parent="1" source="106" target="102" edge="1">
                    <mxGeometry width="50" height="50" relative="1" as="geometry">
                        <mxPoint x="-430.0000000000002" y="1120" as="sourcePoint"/>
                        <mxPoint x="-490.0000000000002" y="920" as="targetPoint"/>
                        <Array as="points">
                            <mxPoint x="-500" y="1655"/>
                        </Array>
                    </mxGeometry>
                </mxCell>
                <mxCell id="336" value="Home" style="rounded=0;whiteSpace=wrap;html=1;fillColor=#1ba1e2;fontColor=#ffffff;strokeColor=#006EAF;" vertex="1" parent="1">
                    <mxGeometry x="-410" y="2080" width="90" height="40" as="geometry"/>
                </mxCell>
                <mxCell id="337" value="Login" style="rounded=0;whiteSpace=wrap;html=1;fillColor=#1ba1e2;fontColor=#ffffff;strokeColor=#006EAF;" vertex="1" parent="1">
                    <mxGeometry x="-410" y="2160" width="90" height="40" as="geometry"/>
                </mxCell>
                <mxCell id="338" value="Register" style="rounded=0;whiteSpace=wrap;html=1;fillColor=#1ba1e2;fontColor=#ffffff;strokeColor=#006EAF;" vertex="1" parent="1">
                    <mxGeometry x="-470" y="2240" width="90" height="40" as="geometry"/>
                </mxCell>
                <mxCell id="339" value="Forget Password" style="rounded=0;whiteSpace=wrap;html=1;fillColor=#1ba1e2;fontColor=#ffffff;strokeColor=#006EAF;" vertex="1" parent="1">
                    <mxGeometry x="-340" y="2240" width="90" height="40" as="geometry"/>
                </mxCell>
                <mxCell id="340" value="" style="endArrow=block;html=1;exitX=0.5;exitY=1;exitDx=0;exitDy=0;entryX=0.5;entryY=0;entryDx=0;entryDy=0;strokeColor=#000000;rounded=0;endFill=1;" edge="1" parent="1" source="337" target="338">
                    <mxGeometry width="50" height="50" relative="1" as="geometry">
                        <mxPoint y="2110" as="sourcePoint"/>
                        <mxPoint x="50" y="2060" as="targetPoint"/>
                        <Array as="points">
                            <mxPoint x="-365" y="2220"/>
                            <mxPoint x="-425" y="2220"/>
                        </Array>
                    </mxGeometry>
                </mxCell>
                <mxCell id="341" value="" style="endArrow=block;html=1;rounded=0;strokeColor=#000000;exitX=0.5;exitY=1;exitDx=0;exitDy=0;entryX=0.5;entryY=0;entryDx=0;entryDy=0;endFill=1;" edge="1" parent="1" source="337" target="339">
                    <mxGeometry width="50" height="50" relative="1" as="geometry">
                        <mxPoint x="-300" y="2200" as="sourcePoint"/>
                        <mxPoint x="-250" y="2150" as="targetPoint"/>
                        <Array as="points">
                            <mxPoint x="-365" y="2220"/>
                            <mxPoint x="-295" y="2220"/>
                        </Array>
                    </mxGeometry>
                </mxCell>
                <mxCell id="343" value="" style="endArrow=block;startArrow=block;html=1;rounded=0;strokeColor=#000000;fontSize=8;fontColor=#000000;entryX=0.5;entryY=1;entryDx=0;entryDy=0;endFill=1;startFill=1;" edge="1" parent="1" source="337" target="336">
                    <mxGeometry width="50" height="50" relative="1" as="geometry">
                        <mxPoint x="-360" y="2200" as="sourcePoint"/>
                        <mxPoint x="-310" y="2150" as="targetPoint"/>
                    </mxGeometry>
                </mxCell>
                <mxCell id="344" value="User Profile" style="rounded=0;whiteSpace=wrap;html=1;fillColor=#1ba1e2;fontColor=#ffffff;strokeColor=#006EAF;" vertex="1" parent="1">
                    <mxGeometry x="-410" y="1980" width="90" height="40" as="geometry"/>
                </mxCell>
                <mxCell id="346" value="" style="endArrow=block;html=1;rounded=0;strokeColor=#000000;fontSize=8;fontColor=#000000;exitX=0.5;exitY=0;exitDx=0;exitDy=0;entryX=0.5;entryY=1;entryDx=0;entryDy=0;endFill=1;" edge="1" parent="1" source="336" target="344">
                    <mxGeometry width="50" height="50" relative="1" as="geometry">
                        <mxPoint x="-360" y="2040" as="sourcePoint"/>
                        <mxPoint x="-310" y="1990" as="targetPoint"/>
                    </mxGeometry>
                </mxCell>
                <mxCell id="347" value="List Phòng Ban" style="rounded=0;whiteSpace=wrap;html=1;fillColor=#1ba1e2;fontColor=#ffffff;strokeColor=#006EAF;" vertex="1" parent="1">
                    <mxGeometry x="-240" y="1950" width="90" height="40" as="geometry"/>
                </mxCell>
                <mxCell id="348" value="Tạo Phòng Ban" style="rounded=0;whiteSpace=wrap;html=1;fillColor=#1ba1e2;fontColor=#ffffff;strokeColor=#006EAF;" vertex="1" parent="1">
                    <mxGeometry x="-60" y="1897.5" width="90" height="30" as="geometry"/>
                </mxCell>
                <mxCell id="350" value="Sửa Phòng Ban" style="rounded=0;whiteSpace=wrap;html=1;fillColor=#1ba1e2;fontColor=#ffffff;strokeColor=#006EAF;" vertex="1" parent="1">
                    <mxGeometry x="-60" y="1955" width="90" height="30" as="geometry"/>
                </mxCell>
                <mxCell id="353" value="Xóa Phòng Ban" style="ellipse;whiteSpace=wrap;html=1;labelBackgroundColor=#1BA1E2;fontSize=11;fontColor=#FFFFFF;strokeColor=#1BA1E2;fillColor=#1BA1E2;" vertex="1" parent="1">
                    <mxGeometry x="-60" y="2007.5" width="100" height="35" as="geometry"/>
                </mxCell>
                <mxCell id="354" value="" style="endArrow=block;html=1;rounded=0;strokeColor=#000000;fontSize=8;fontColor=#000000;exitX=1;exitY=0.5;exitDx=0;exitDy=0;entryX=0;entryY=0.5;entryDx=0;entryDy=0;endFill=1;" edge="1" parent="1" source="336" target="347">
                    <mxGeometry width="50" height="50" relative="1" as="geometry">
                        <mxPoint x="-240" y="2080" as="sourcePoint"/>
                        <mxPoint x="-240" y="2020" as="targetPoint"/>
                        <Array as="points">
                            <mxPoint x="-280" y="2100"/>
                            <mxPoint x="-280" y="1970"/>
                        </Array>
                    </mxGeometry>
                </mxCell>
                <mxCell id="355" value="" style="endArrow=block;html=1;rounded=0;strokeColor=#000000;fontSize=8;fontColor=#000000;exitX=1;exitY=0.5;exitDx=0;exitDy=0;entryX=0;entryY=0.5;entryDx=0;entryDy=0;endFill=1;" edge="1" parent="1" source="347" target="348">
                    <mxGeometry width="50" height="50" relative="1" as="geometry">
                        <mxPoint x="-130" y="1970" as="sourcePoint"/>
                        <mxPoint x="-130" y="1910" as="targetPoint"/>
                        <Array as="points">
                            <mxPoint x="-130" y="1970"/>
                            <mxPoint x="-130" y="1913"/>
                        </Array>
                    </mxGeometry>
                </mxCell>
                <mxCell id="356" value="" style="endArrow=block;html=1;rounded=0;strokeColor=#000000;fontSize=8;fontColor=#000000;exitX=1;exitY=0.5;exitDx=0;exitDy=0;entryX=0;entryY=0.5;entryDx=0;entryDy=0;endFill=1;" edge="1" parent="1" source="347" target="350">
                    <mxGeometry width="50" height="50" relative="1" as="geometry">
                        <mxPoint x="-135" y="2040" as="sourcePoint"/>
                        <mxPoint x="-135" y="1980" as="targetPoint"/>
                    </mxGeometry>
                </mxCell>
                <mxCell id="357" value="" style="endArrow=block;html=1;rounded=0;strokeColor=#000000;fontSize=8;fontColor=#000000;exitX=1;exitY=0.5;exitDx=0;exitDy=0;entryX=0;entryY=0.5;entryDx=0;entryDy=0;endFill=1;" edge="1" parent="1" source="347" target="353">
                    <mxGeometry width="50" height="50" relative="1" as="geometry">
                        <mxPoint x="-355" y="2090" as="sourcePoint"/>
                        <mxPoint x="-355" y="2030" as="targetPoint"/>
                        <Array as="points">
                            <mxPoint x="-130" y="1970"/>
                            <mxPoint x="-130" y="2025"/>
                        </Array>
                    </mxGeometry>
                </mxCell>
                <mxCell id="358" value="List Dự án" style="rounded=0;whiteSpace=wrap;html=1;fillColor=#1ba1e2;fontColor=#ffffff;strokeColor=#006EAF;" vertex="1" parent="1">
                    <mxGeometry x="-240" y="2080" width="90" height="40" as="geometry"/>
                </mxCell>
                <mxCell id="361" value="List Issues" style="rounded=0;whiteSpace=wrap;html=1;fillColor=#1ba1e2;fontColor=#ffffff;strokeColor=#006EAF;" vertex="1" parent="1">
                    <mxGeometry x="-50" y="2570.5" width="90" height="40" as="geometry"/>
                </mxCell>
                <mxCell id="362" value="List Thành viên dự án" style="rounded=0;whiteSpace=wrap;html=1;fillColor=#1ba1e2;fontColor=#ffffff;strokeColor=#006EAF;" vertex="1" parent="1">
                    <mxGeometry x="-60" y="2180" width="90" height="40" as="geometry"/>
                </mxCell>
                <mxCell id="363" value="Tạo dự án" style="rounded=0;whiteSpace=wrap;html=1;fillColor=#1ba1e2;fontColor=#ffffff;strokeColor=#006EAF;" vertex="1" parent="1">
                    <mxGeometry x="-60" y="2050" width="90" height="40" as="geometry"/>
                </mxCell>
                <mxCell id="364" value="Sửa dự án" style="rounded=0;whiteSpace=wrap;html=1;fillColor=#1ba1e2;fontColor=#ffffff;strokeColor=#006EAF;" vertex="1" parent="1">
                    <mxGeometry x="-60" y="2110" width="90" height="40" as="geometry"/>
                </mxCell>
                <mxCell id="368" value="Xóa Issue" style="ellipse;whiteSpace=wrap;html=1;labelBackgroundColor=#1BA1E2;fontSize=11;fontColor=#FFFFFF;strokeColor=#1BA1E2;fillColor=#1BA1E2;" vertex="1" parent="1">
                    <mxGeometry x="160" y="2618" width="100" height="35" as="geometry"/>
                </mxCell>
                <mxCell id="369" value="Sửa Issue" style="rounded=0;whiteSpace=wrap;html=1;fillColor=#1ba1e2;fontColor=#ffffff;strokeColor=#006EAF;" vertex="1" parent="1">
                    <mxGeometry x="160" y="2575.5" width="90" height="30" as="geometry"/>
                </mxCell>
                <mxCell id="370" value="Tạo Issue" style="rounded=0;whiteSpace=wrap;html=1;fillColor=#1ba1e2;fontColor=#ffffff;strokeColor=#006EAF;" vertex="1" parent="1">
                    <mxGeometry x="160" y="2530" width="90" height="30" as="geometry"/>
                </mxCell>
                <mxCell id="371" value="" style="endArrow=block;html=1;rounded=0;strokeColor=#000000;fontSize=8;fontColor=#000000;exitX=1;exitY=0.5;exitDx=0;exitDy=0;entryX=0;entryY=0.5;entryDx=0;entryDy=0;endFill=1;" edge="1" parent="1" target="370">
                    <mxGeometry width="50" height="50" relative="1" as="geometry">
                        <mxPoint x="40" y="2591.75" as="sourcePoint"/>
                        <mxPoint x="130" y="2534.25" as="targetPoint"/>
                        <Array as="points">
                            <mxPoint x="60" y="2591.75"/>
                            <mxPoint x="60" y="2545"/>
                        </Array>
                    </mxGeometry>
                </mxCell>
                <mxCell id="372" value="" style="endArrow=block;html=1;rounded=0;strokeColor=#000000;fontSize=8;fontColor=#000000;exitX=1;exitY=0.5;exitDx=0;exitDy=0;entryX=0;entryY=0.5;entryDx=0;entryDy=0;endFill=1;" edge="1" parent="1" target="369">
                    <mxGeometry width="50" height="50" relative="1" as="geometry">
                        <mxPoint x="40" y="2591.75" as="sourcePoint"/>
                        <mxPoint x="130" y="2591.75" as="targetPoint"/>
                    </mxGeometry>
                </mxCell>
                <mxCell id="373" value="" style="endArrow=block;html=1;rounded=0;strokeColor=#000000;fontSize=8;fontColor=#000000;entryX=0;entryY=0.5;entryDx=0;entryDy=0;endFill=1;" edge="1" parent="1" target="368">
                    <mxGeometry width="50" height="50" relative="1" as="geometry">
                        <mxPoint x="40" y="2591" as="sourcePoint"/>
                        <mxPoint x="130" y="2646.75" as="targetPoint"/>
                        <Array as="points">
                            <mxPoint x="60" y="2591.75"/>
                            <mxPoint x="60" y="2636"/>
                        </Array>
                    </mxGeometry>
                </mxCell>
                <mxCell id="374" value="List Releases" style="rounded=0;whiteSpace=wrap;html=1;fillColor=#1ba1e2;fontColor=#ffffff;strokeColor=#006EAF;" vertex="1" parent="1">
                    <mxGeometry x="-50" y="2430.5" width="90" height="40" as="geometry"/>
                </mxCell>
                <mxCell id="375" value="" style="endArrow=block;html=1;rounded=0;strokeColor=#000000;fontSize=8;fontColor=#000000;exitX=1;exitY=0.5;exitDx=0;exitDy=0;entryX=0;entryY=0.5;entryDx=0;entryDy=0;endFill=1;" edge="1" target="379" parent="1">
                    <mxGeometry width="50" height="50" relative="1" as="geometry">
                        <mxPoint x="40" y="2451.75" as="sourcePoint"/>
                        <mxPoint x="130" y="2451.75" as="targetPoint"/>
                    </mxGeometry>
                </mxCell>
                <mxCell id="376" value="" style="endArrow=block;html=1;rounded=0;strokeColor=#000000;fontSize=8;fontColor=#000000;exitX=1;exitY=0.5;exitDx=0;exitDy=0;entryX=0;entryY=0.5;entryDx=0;entryDy=0;endFill=1;" edge="1" target="380" parent="1">
                    <mxGeometry width="50" height="50" relative="1" as="geometry">
                        <mxPoint x="40" y="2451.75" as="sourcePoint"/>
                        <mxPoint x="130" y="2394.25" as="targetPoint"/>
                        <Array as="points">
                            <mxPoint x="60" y="2451.75"/>
                            <mxPoint x="60" y="2405"/>
                        </Array>
                    </mxGeometry>
                </mxCell>
                <mxCell id="377" value="" style="endArrow=block;html=1;rounded=0;strokeColor=#000000;fontSize=8;fontColor=#000000;entryX=0;entryY=0.5;entryDx=0;entryDy=0;endFill=1;" edge="1" target="378" parent="1">
                    <mxGeometry width="50" height="50" relative="1" as="geometry">
                        <mxPoint x="40" y="2451" as="sourcePoint"/>
                        <mxPoint x="130" y="2506.75" as="targetPoint"/>
                        <Array as="points">
                            <mxPoint x="60" y="2451.75"/>
                            <mxPoint x="60" y="2496"/>
                        </Array>
                    </mxGeometry>
                </mxCell>
                <mxCell id="378" value="Xóa Release" style="ellipse;whiteSpace=wrap;html=1;labelBackgroundColor=#1BA1E2;fontSize=11;fontColor=#FFFFFF;strokeColor=#1BA1E2;fillColor=#1BA1E2;" vertex="1" parent="1">
                    <mxGeometry x="160" y="2478" width="100" height="35" as="geometry"/>
                </mxCell>
                <mxCell id="379" value="Sửa Release" style="rounded=0;whiteSpace=wrap;html=1;fillColor=#1ba1e2;fontColor=#ffffff;strokeColor=#006EAF;" vertex="1" parent="1">
                    <mxGeometry x="160" y="2435.5" width="90" height="30" as="geometry"/>
                </mxCell>
                <mxCell id="380" value="Tạo Release" style="rounded=0;whiteSpace=wrap;html=1;fillColor=#1ba1e2;fontColor=#ffffff;strokeColor=#006EAF;" vertex="1" parent="1">
                    <mxGeometry x="160" y="2390" width="90" height="30" as="geometry"/>
                </mxCell>
                <mxCell id="381" value="List Milestones" style="rounded=0;whiteSpace=wrap;html=1;fillColor=#1ba1e2;fontColor=#ffffff;strokeColor=#006EAF;" vertex="1" parent="1">
                    <mxGeometry x="-50" y="2290.5" width="90" height="40" as="geometry"/>
                </mxCell>
                <mxCell id="382" value="" style="endArrow=block;html=1;rounded=0;strokeColor=#000000;fontSize=8;fontColor=#000000;exitX=1;exitY=0.5;exitDx=0;exitDy=0;entryX=0;entryY=0.5;entryDx=0;entryDy=0;endFill=1;" edge="1" target="387" parent="1">
                    <mxGeometry width="50" height="50" relative="1" as="geometry">
                        <mxPoint x="40" y="2311.75" as="sourcePoint"/>
                        <mxPoint x="130" y="2254.25" as="targetPoint"/>
                        <Array as="points">
                            <mxPoint x="60" y="2311.75"/>
                            <mxPoint x="60" y="2265"/>
                        </Array>
                    </mxGeometry>
                </mxCell>
                <mxCell id="383" value="" style="endArrow=block;html=1;rounded=0;strokeColor=#000000;fontSize=8;fontColor=#000000;exitX=1;exitY=0.5;exitDx=0;exitDy=0;entryX=0;entryY=0.5;entryDx=0;entryDy=0;endFill=1;" edge="1" target="386" parent="1">
                    <mxGeometry width="50" height="50" relative="1" as="geometry">
                        <mxPoint x="40" y="2311.75" as="sourcePoint"/>
                        <mxPoint x="130" y="2311.75" as="targetPoint"/>
                    </mxGeometry>
                </mxCell>
                <mxCell id="384" value="" style="endArrow=block;html=1;rounded=0;strokeColor=#000000;fontSize=8;fontColor=#000000;entryX=0;entryY=0.5;entryDx=0;entryDy=0;endFill=1;" edge="1" target="385" parent="1">
                    <mxGeometry width="50" height="50" relative="1" as="geometry">
                        <mxPoint x="40" y="2311" as="sourcePoint"/>
                        <mxPoint x="130" y="2366.75" as="targetPoint"/>
                        <Array as="points">
                            <mxPoint x="60" y="2311.75"/>
                            <mxPoint x="60" y="2356"/>
                        </Array>
                    </mxGeometry>
                </mxCell>
                <mxCell id="385" value="Xóa Milestone" style="ellipse;whiteSpace=wrap;html=1;labelBackgroundColor=#1BA1E2;fontSize=11;fontColor=#FFFFFF;strokeColor=#1BA1E2;fillColor=#1BA1E2;" vertex="1" parent="1">
                    <mxGeometry x="160" y="2338" width="100" height="35" as="geometry"/>
                </mxCell>
                <mxCell id="386" value="Sửa Milestone" style="rounded=0;whiteSpace=wrap;html=1;fillColor=#1ba1e2;fontColor=#ffffff;strokeColor=#006EAF;" vertex="1" parent="1">
                    <mxGeometry x="160" y="2295.5" width="90" height="30" as="geometry"/>
                </mxCell>
                <mxCell id="387" value="Tạo Milestone" style="rounded=0;whiteSpace=wrap;html=1;fillColor=#1ba1e2;fontColor=#ffffff;strokeColor=#006EAF;" vertex="1" parent="1">
                    <mxGeometry x="160" y="2250" width="90" height="30" as="geometry"/>
                </mxCell>
                <mxCell id="388" value="Thêm thành viên / group" style="rounded=0;whiteSpace=wrap;html=1;fillColor=#1ba1e2;fontColor=#ffffff;strokeColor=#006EAF;" vertex="1" parent="1">
                    <mxGeometry x="135" y="2150" width="90" height="40" as="geometry"/>
                </mxCell>
                <mxCell id="389" value="Xóa Thành viên" style="ellipse;whiteSpace=wrap;html=1;labelBackgroundColor=#1BA1E2;fontSize=11;fontColor=#FFFFFF;strokeColor=#1BA1E2;fillColor=#1BA1E2;" vertex="1" parent="1">
                    <mxGeometry x="135" y="2205" width="100" height="35" as="geometry"/>
                </mxCell>
                <mxCell id="390" value="" style="endArrow=block;html=1;rounded=0;strokeColor=#000000;fontSize=8;fontColor=#000000;entryX=0;entryY=0.5;entryDx=0;entryDy=0;endFill=1;exitX=1;exitY=0.5;exitDx=0;exitDy=0;" edge="1" parent="1" source="362" target="388">
                    <mxGeometry width="50" height="50" relative="1" as="geometry">
                        <mxPoint x="30" y="2200" as="sourcePoint"/>
                        <mxPoint x="150" y="2153" as="targetPoint"/>
                        <Array as="points">
                            <mxPoint x="50" y="2199.75"/>
                            <mxPoint x="50" y="2170"/>
                        </Array>
                    </mxGeometry>
                </mxCell>
                <mxCell id="391" value="" style="endArrow=block;html=1;rounded=0;strokeColor=#000000;fontSize=8;fontColor=#000000;entryX=0;entryY=0.5;entryDx=0;entryDy=0;endFill=1;exitX=1;exitY=0.5;exitDx=0;exitDy=0;" edge="1" parent="1" source="362" target="389">
                    <mxGeometry width="50" height="50" relative="1" as="geometry">
                        <mxPoint x="40" y="2210" as="sourcePoint"/>
                        <mxPoint x="145" y="2180" as="targetPoint"/>
                        <Array as="points">
                            <mxPoint x="50" y="2200"/>
                            <mxPoint x="50" y="2223"/>
                        </Array>
                    </mxGeometry>
                </mxCell>
                <mxCell id="392" value="" style="endArrow=block;html=1;rounded=0;strokeColor=#000000;fontSize=8;fontColor=#000000;entryX=0;entryY=0.5;entryDx=0;entryDy=0;endFill=1;exitX=1;exitY=0.5;exitDx=0;exitDy=0;" edge="1" parent="1" source="358" target="363">
                    <mxGeometry width="50" height="50" relative="1" as="geometry">
                        <mxPoint x="-130" y="2130" as="sourcePoint"/>
                        <mxPoint x="-25" y="2100" as="targetPoint"/>
                        <Array as="points">
                            <mxPoint x="-130" y="2100"/>
                            <mxPoint x="-130" y="2070"/>
                        </Array>
                    </mxGeometry>
                </mxCell>
                <mxCell id="393" value="" style="endArrow=block;html=1;rounded=0;strokeColor=#000000;fontSize=8;fontColor=#000000;entryX=0;entryY=0.5;entryDx=0;entryDy=0;endFill=1;exitX=1;exitY=0.5;exitDx=0;exitDy=0;" edge="1" parent="1" source="358" target="364">
                    <mxGeometry width="50" height="50" relative="1" as="geometry">
                        <mxPoint x="-140" y="2110" as="sourcePoint"/>
                        <mxPoint x="-50" y="2080" as="targetPoint"/>
                        <Array as="points">
                            <mxPoint x="-130" y="2100"/>
                            <mxPoint x="-130" y="2130"/>
                        </Array>
                    </mxGeometry>
                </mxCell>
                <mxCell id="394" value="" style="endArrow=block;html=1;rounded=0;strokeColor=#000000;fontSize=8;fontColor=#000000;entryX=0;entryY=0.5;entryDx=0;entryDy=0;endFill=1;" edge="1" parent="1" target="362">
                    <mxGeometry width="50" height="50" relative="1" as="geometry">
                        <mxPoint x="-150" y="2100" as="sourcePoint"/>
                        <mxPoint x="-60" y="2130" as="targetPoint"/>
                        <Array as="points">
                            <mxPoint x="-130" y="2100"/>
                            <mxPoint x="-130" y="2200"/>
                        </Array>
                    </mxGeometry>
                </mxCell>
                <mxCell id="395" value="" style="endArrow=block;html=1;rounded=0;strokeColor=#000000;fontSize=8;fontColor=#000000;entryX=0;entryY=0.5;entryDx=0;entryDy=0;endFill=1;exitX=1;exitY=0.5;exitDx=0;exitDy=0;" edge="1" parent="1" source="358" target="381">
                    <mxGeometry width="50" height="50" relative="1" as="geometry">
                        <mxPoint x="-140" y="2110" as="sourcePoint"/>
                        <mxPoint x="-50" y="2210" as="targetPoint"/>
                        <Array as="points">
                            <mxPoint x="-130" y="2100"/>
                            <mxPoint x="-130" y="2311"/>
                        </Array>
                    </mxGeometry>
                </mxCell>
                <mxCell id="396" value="" style="endArrow=block;html=1;rounded=0;strokeColor=#000000;fontSize=8;fontColor=#000000;entryX=0;entryY=0.5;entryDx=0;entryDy=0;endFill=1;exitX=1;exitY=0.5;exitDx=0;exitDy=0;" edge="1" parent="1" source="358" target="374">
                    <mxGeometry width="50" height="50" relative="1" as="geometry">
                        <mxPoint x="-140" y="2110" as="sourcePoint"/>
                        <mxPoint x="-40" y="2320.5" as="targetPoint"/>
                        <Array as="points">
                            <mxPoint x="-130" y="2100"/>
                            <mxPoint x="-130" y="2451"/>
                        </Array>
                    </mxGeometry>
                </mxCell>
                <mxCell id="397" value="" style="endArrow=block;html=1;rounded=0;strokeColor=#000000;fontSize=8;fontColor=#000000;entryX=0;entryY=0.5;entryDx=0;entryDy=0;endFill=1;exitX=1;exitY=0.5;exitDx=0;exitDy=0;" edge="1" parent="1" source="358" target="361">
                    <mxGeometry width="50" height="50" relative="1" as="geometry">
                        <mxPoint x="-140" y="2110" as="sourcePoint"/>
                        <mxPoint x="-40" y="2460.5" as="targetPoint"/>
                        <Array as="points">
                            <mxPoint x="-130" y="2100"/>
                            <mxPoint x="-130" y="2591"/>
                        </Array>
                    </mxGeometry>
                </mxCell>
                <mxCell id="398" value="" style="endArrow=block;html=1;rounded=0;strokeColor=#000000;fontSize=8;fontColor=#000000;exitX=1;exitY=0.5;exitDx=0;exitDy=0;entryX=0;entryY=0.5;entryDx=0;entryDy=0;endFill=1;" edge="1" parent="1" source="336" target="358">
                    <mxGeometry width="50" height="50" relative="1" as="geometry">
                        <mxPoint x="-355" y="2090" as="sourcePoint"/>
                        <mxPoint x="-355" y="2030" as="targetPoint"/>
                    </mxGeometry>
                </mxCell>
                <mxCell id="399" value="Xem Profile" style="text;html=1;strokeColor=none;fillColor=none;align=center;verticalAlign=middle;whiteSpace=wrap;rounded=0;labelBackgroundColor=none;fontSize=11;fontColor=#000000;" vertex="1" parent="1">
                    <mxGeometry x="-450" y="2042.5" width="105" height="30" as="geometry"/>
                </mxCell>
                <mxCell id="400" value="Đăng nhập" style="text;html=1;strokeColor=none;fillColor=none;align=center;verticalAlign=middle;whiteSpace=wrap;rounded=0;labelBackgroundColor=none;fontSize=11;fontColor=#000000;" vertex="1" parent="1">
                    <mxGeometry x="-450" y="2130" width="105" height="30" as="geometry"/>
                </mxCell>
                <mxCell id="402" value="Quên mật khẩu" style="text;html=1;strokeColor=none;fillColor=none;align=center;verticalAlign=middle;whiteSpace=wrap;rounded=0;labelBackgroundColor=none;fontSize=11;fontColor=#000000;" vertex="1" parent="1">
                    <mxGeometry x="-370" y="2200" width="105" height="30" as="geometry"/>
                </mxCell>
                <mxCell id="403" value="Đăng ký" style="text;html=1;strokeColor=none;fillColor=none;align=center;verticalAlign=middle;whiteSpace=wrap;rounded=0;labelBackgroundColor=none;fontSize=11;fontColor=#000000;" vertex="1" parent="1">
                    <mxGeometry x="-450" y="2199" width="105" height="30" as="geometry"/>
                </mxCell>
                <mxCell id="404" value="Phòng ban" style="text;html=1;strokeColor=none;fillColor=none;align=center;verticalAlign=middle;whiteSpace=wrap;rounded=0;labelBackgroundColor=none;fontSize=11;fontColor=#000000;" vertex="1" parent="1">
                    <mxGeometry x="-322.5" y="1940" width="105" height="30" as="geometry"/>
                </mxCell>
                <mxCell id="405" value="Dự án" style="text;html=1;strokeColor=none;fillColor=none;align=center;verticalAlign=middle;whiteSpace=wrap;rounded=0;labelBackgroundColor=none;fontSize=11;fontColor=#000000;" vertex="1" parent="1">
                    <mxGeometry x="-315" y="2100" width="105" height="30" as="geometry"/>
                </mxCell>
                <mxCell id="406" value="Role" style="rounded=0;whiteSpace=wrap;html=1;fillColor=#1ba1e2;fontColor=#ffffff;strokeColor=#006EAF;" vertex="1" parent="1">
                    <mxGeometry x="60" y="1927.5" width="90" height="30" as="geometry"/>
                </mxCell>
                <mxCell id="407" value="" style="endArrow=block;html=1;rounded=0;strokeColor=#000000;fontSize=8;fontColor=#000000;exitX=1;exitY=0.5;exitDx=0;exitDy=0;entryX=0;entryY=0.5;entryDx=0;entryDy=0;endFill=1;" edge="1" parent="1" source="347" target="406">
                    <mxGeometry width="50" height="50" relative="1" as="geometry">
                        <mxPoint x="-140" y="1980" as="sourcePoint"/>
                        <mxPoint x="-50" y="1922.5" as="targetPoint"/>
                        <Array as="points">
                            <mxPoint x="-130" y="1970"/>
                            <mxPoint x="-130" y="1943"/>
                        </Array>
                    </mxGeometry>
                </mxCell>
                <mxCell id="409" value="Tạo" style="text;html=1;strokeColor=none;fillColor=none;align=center;verticalAlign=middle;whiteSpace=wrap;rounded=0;labelBackgroundColor=none;fontSize=11;fontColor=#000000;" vertex="1" parent="1">
                    <mxGeometry x="-150" y="1890" width="105" height="30" as="geometry"/>
                </mxCell>
                <mxCell id="410" value="Sửa" style="text;html=1;strokeColor=none;fillColor=none;align=center;verticalAlign=middle;whiteSpace=wrap;rounded=0;labelBackgroundColor=none;fontSize=11;fontColor=#000000;" vertex="1" parent="1">
                    <mxGeometry x="-150" y="1949" width="105" height="30" as="geometry"/>
                </mxCell>
                <mxCell id="411" value="Xóa" style="text;html=1;strokeColor=none;fillColor=none;align=center;verticalAlign=middle;whiteSpace=wrap;rounded=0;labelBackgroundColor=none;fontSize=11;fontColor=#000000;" vertex="1" parent="1">
                    <mxGeometry x="-150" y="2003" width="105" height="30" as="geometry"/>
                </mxCell>
                <mxCell id="412" value="Phân bổ" style="text;html=1;strokeColor=none;fillColor=none;align=center;verticalAlign=middle;whiteSpace=wrap;rounded=0;labelBackgroundColor=none;fontSize=11;fontColor=#000000;" vertex="1" parent="1">
                    <mxGeometry x="-26" y="1921" width="105" height="30" as="geometry"/>
                </mxCell>
                <mxCell id="413" value="Tạo" style="text;html=1;strokeColor=none;fillColor=none;align=center;verticalAlign=middle;whiteSpace=wrap;rounded=0;labelBackgroundColor=none;fontSize=11;fontColor=#000000;" vertex="1" parent="1">
                    <mxGeometry x="-140" y="2048" width="105" height="30" as="geometry"/>
                </mxCell>
                <mxCell id="414" value="Sửa" style="text;html=1;strokeColor=none;fillColor=none;align=center;verticalAlign=middle;whiteSpace=wrap;rounded=0;labelBackgroundColor=none;fontSize=11;fontColor=#000000;" vertex="1" parent="1">
                    <mxGeometry x="-140" y="2108" width="105" height="30" as="geometry"/>
                </mxCell>
                <mxCell id="415" value="Thành viên" style="text;html=1;strokeColor=none;fillColor=none;align=center;verticalAlign=middle;whiteSpace=wrap;rounded=0;labelBackgroundColor=none;fontSize=11;fontColor=#000000;" vertex="1" parent="1">
                    <mxGeometry x="-147" y="2178" width="105" height="30" as="geometry"/>
                </mxCell>
                <mxCell id="416" value="Milestones" style="text;html=1;strokeColor=none;fillColor=none;align=center;verticalAlign=middle;whiteSpace=wrap;rounded=0;labelBackgroundColor=none;fontSize=11;fontColor=#000000;" vertex="1" parent="1">
                    <mxGeometry x="-146" y="2288.5" width="105" height="30" as="geometry"/>
                </mxCell>
                <mxCell id="417" value="Releases" style="text;html=1;strokeColor=none;fillColor=none;align=center;verticalAlign=middle;whiteSpace=wrap;rounded=0;labelBackgroundColor=none;fontSize=11;fontColor=#000000;" vertex="1" parent="1">
                    <mxGeometry x="-146" y="2428.5" width="105" height="30" as="geometry"/>
                </mxCell>
                <mxCell id="418" value="Issues" style="text;html=1;strokeColor=none;fillColor=none;align=center;verticalAlign=middle;whiteSpace=wrap;rounded=0;labelBackgroundColor=none;fontSize=11;fontColor=#000000;" vertex="1" parent="1">
                    <mxGeometry x="-147" y="2568.5" width="105" height="30" as="geometry"/>
                </mxCell>
                <mxCell id="419" value="Thêm" style="text;html=1;strokeColor=none;fillColor=none;align=center;verticalAlign=middle;whiteSpace=wrap;rounded=0;labelBackgroundColor=none;fontSize=11;fontColor=#000000;" vertex="1" parent="1">
                    <mxGeometry x="55" y="2148" width="105" height="30" as="geometry"/>
                </mxCell>
                <mxCell id="420" value="Xóa" style="text;html=1;strokeColor=none;fillColor=none;align=center;verticalAlign=middle;whiteSpace=wrap;rounded=0;labelBackgroundColor=none;fontSize=11;fontColor=#000000;" vertex="1" parent="1">
                    <mxGeometry x="55" y="2201" width="105" height="30" as="geometry"/>
                </mxCell>
                <mxCell id="421" value="Tạo" style="text;html=1;strokeColor=none;fillColor=none;align=center;verticalAlign=middle;whiteSpace=wrap;rounded=0;labelBackgroundColor=none;fontSize=11;fontColor=#000000;" vertex="1" parent="1">
                    <mxGeometry x="70" y="2243" width="105" height="30" as="geometry"/>
                </mxCell>
                <mxCell id="422" value="Sửa" style="text;html=1;strokeColor=none;fillColor=none;align=center;verticalAlign=middle;whiteSpace=wrap;rounded=0;labelBackgroundColor=none;fontSize=11;fontColor=#000000;" vertex="1" parent="1">
                    <mxGeometry x="70" y="2289" width="105" height="30" as="geometry"/>
                </mxCell>
                <mxCell id="425" value="Xóa" style="text;html=1;strokeColor=none;fillColor=none;align=center;verticalAlign=middle;whiteSpace=wrap;rounded=0;labelBackgroundColor=none;fontSize=11;fontColor=#000000;" vertex="1" parent="1">
                    <mxGeometry x="70" y="2332.5" width="105" height="30" as="geometry"/>
                </mxCell>
                <mxCell id="426" value="Xóa" style="text;html=1;strokeColor=none;fillColor=none;align=center;verticalAlign=middle;whiteSpace=wrap;rounded=0;labelBackgroundColor=none;fontSize=11;fontColor=#000000;" vertex="1" parent="1">
                    <mxGeometry x="70" y="2472.5" width="105" height="30" as="geometry"/>
                </mxCell>
                <mxCell id="427" value="Sửa" style="text;html=1;strokeColor=none;fillColor=none;align=center;verticalAlign=middle;whiteSpace=wrap;rounded=0;labelBackgroundColor=none;fontSize=11;fontColor=#000000;" vertex="1" parent="1">
                    <mxGeometry x="70" y="2429" width="105" height="30" as="geometry"/>
                </mxCell>
                <mxCell id="428" value="Tạo" style="text;html=1;strokeColor=none;fillColor=none;align=center;verticalAlign=middle;whiteSpace=wrap;rounded=0;labelBackgroundColor=none;fontSize=11;fontColor=#000000;" vertex="1" parent="1">
                    <mxGeometry x="70" y="2383" width="105" height="30" as="geometry"/>
                </mxCell>
                <mxCell id="429" value="Xóa" style="text;html=1;strokeColor=none;fillColor=none;align=center;verticalAlign=middle;whiteSpace=wrap;rounded=0;labelBackgroundColor=none;fontSize=11;fontColor=#000000;" vertex="1" parent="1">
                    <mxGeometry x="70" y="2612.5" width="105" height="30" as="geometry"/>
                </mxCell>
                <mxCell id="430" value="Sửa" style="text;html=1;strokeColor=none;fillColor=none;align=center;verticalAlign=middle;whiteSpace=wrap;rounded=0;labelBackgroundColor=none;fontSize=11;fontColor=#000000;" vertex="1" parent="1">
                    <mxGeometry x="70" y="2569" width="105" height="30" as="geometry"/>
                </mxCell>
                <mxCell id="431" value="Tạo" style="text;html=1;strokeColor=none;fillColor=none;align=center;verticalAlign=middle;whiteSpace=wrap;rounded=0;labelBackgroundColor=none;fontSize=11;fontColor=#000000;" vertex="1" parent="1">
                    <mxGeometry x="70" y="2523" width="105" height="30" as="geometry"/>
                </mxCell>
                <mxCell id="432" value="Page" style="rounded=0;whiteSpace=wrap;html=1;fillColor=#1ba1e2;fontColor=#ffffff;strokeColor=#006EAF;" vertex="1" parent="1">
                    <mxGeometry x="-455" y="2388.5" width="90" height="40" as="geometry"/>
                </mxCell>
                <mxCell id="433" value="Popup" style="ellipse;whiteSpace=wrap;html=1;labelBackgroundColor=#1BA1E2;fontSize=11;fontColor=#FFFFFF;strokeColor=#1BA1E2;fillColor=#1BA1E2;" vertex="1" parent="1">
                    <mxGeometry x="-460" y="2443" width="100" height="35" as="geometry"/>
                </mxCell>
                <mxCell id="434" value="Trang" style="text;html=1;strokeColor=none;fillColor=none;align=left;verticalAlign=middle;whiteSpace=wrap;rounded=0;labelBackgroundColor=none;fontSize=11;fontColor=#000000;" vertex="1" parent="1">
                    <mxGeometry x="-345" y="2393.5" width="105" height="30" as="geometry"/>
                </mxCell>
                <mxCell id="435" value="Popup" style="text;html=1;strokeColor=none;fillColor=none;align=left;verticalAlign=middle;whiteSpace=wrap;rounded=0;labelBackgroundColor=none;fontSize=11;fontColor=#000000;" vertex="1" parent="1">
                    <mxGeometry x="-346" y="2448" width="105" height="30" as="geometry"/>
                </mxCell>
                <mxCell id="436" value="&lt;font style=&quot;font-size: 18px;&quot;&gt;Ghi chú&lt;/font&gt;" style="text;html=1;strokeColor=none;fillColor=none;align=left;verticalAlign=middle;whiteSpace=wrap;rounded=0;labelBackgroundColor=none;fontSize=11;fontColor=#000000;" vertex="1" parent="1">
                    <mxGeometry x="-470" y="2345.5" width="105" height="30" as="geometry"/>
                </mxCell>
                <mxCell id="437" value="" style="rounded=0;whiteSpace=wrap;html=1;labelBackgroundColor=none;strokeColor=#000000;fontSize=18;fontColor=#000000;fillColor=none;" vertex="1" parent="1">
                    <mxGeometry x="-470" y="2372.5" width="180" height="117.5" as="geometry"/>
                </mxCell>
                <mxCell id="438" value="Báo cáo" style="rounded=0;whiteSpace=wrap;html=1;fillColor=#1ba1e2;fontColor=#ffffff;strokeColor=#006EAF;" vertex="1" parent="1">
                    <mxGeometry x="-240" y="2161" width="90" height="40" as="geometry"/>
                </mxCell>
                <mxCell id="439" value="" style="endArrow=block;html=1;rounded=0;strokeColor=#000000;fontSize=8;fontColor=#000000;entryX=0;entryY=0.5;entryDx=0;entryDy=0;endFill=1;" edge="1" parent="1" target="438">
                    <mxGeometry width="50" height="50" relative="1" as="geometry">
                        <mxPoint x="-320" y="2100" as="sourcePoint"/>
                        <mxPoint x="-230" y="1980" as="targetPoint"/>
                        <Array as="points">
                            <mxPoint x="-280" y="2100"/>
                            <mxPoint x="-280" y="2181"/>
                        </Array>
                    </mxGeometry>
                </mxCell>
                <mxCell id="440" value="Báo cáo" style="text;html=1;strokeColor=none;fillColor=none;align=center;verticalAlign=middle;whiteSpace=wrap;rounded=0;labelBackgroundColor=none;fontSize=11;fontColor=#000000;" vertex="1" parent="1">
                    <mxGeometry x="-322.5" y="2175" width="105" height="30" as="geometry"/>
                </mxCell>
                <mxCell id="441" value="" style="endArrow=none;html=1;strokeColor=#000000;fontColor=#000000;exitX=1;exitY=0.5;exitDx=0;exitDy=0;" edge="1" parent="1">
                    <mxGeometry width="50" height="50" relative="1" as="geometry">
                        <mxPoint x="250" y="169.75" as="sourcePoint"/>
                        <mxPoint x="310" y="169.75" as="targetPoint"/>
                    </mxGeometry>
                </mxCell>
                <mxCell id="442" value="" style="endArrow=none;html=1;strokeColor=#000000;fontColor=#000000;exitX=1;exitY=0.5;exitDx=0;exitDy=0;" edge="1" parent="1">
                    <mxGeometry width="50" height="50" relative="1" as="geometry">
                        <mxPoint x="250" y="229.25" as="sourcePoint"/>
                        <mxPoint x="310" y="229.25" as="targetPoint"/>
                    </mxGeometry>
                </mxCell>
                <mxCell id="443" value="" style="endArrow=none;html=1;strokeColor=#000000;fontColor=#000000;exitX=1;exitY=0.5;exitDx=0;exitDy=0;" edge="1" parent="1">
                    <mxGeometry width="50" height="50" relative="1" as="geometry">
                        <mxPoint x="250" y="289.25" as="sourcePoint"/>
                        <mxPoint x="310" y="289.25" as="targetPoint"/>
                    </mxGeometry>
                </mxCell>
                <mxCell id="444" value="" style="endArrow=none;html=1;strokeColor=#000000;fontColor=#000000;entryX=0.042;entryY=0.164;entryDx=0;entryDy=0;entryPerimeter=0;exitX=0.042;exitY=0.382;exitDx=0;exitDy=0;exitPerimeter=0;" edge="1" parent="1">
                    <mxGeometry width="50" height="50" relative="1" as="geometry">
                        <mxPoint x="310.15999999999985" y="289.8499999999999" as="sourcePoint"/>
                        <mxPoint x="310.15999999999985" y="169.94999999999982" as="targetPoint"/>
                    </mxGeometry>
                </mxCell>
            </root>
        </mxGraphModel>
    </diagram>
</mxfile>